<svg xmlns="http://www.w3.org/2000/svg" viewBox="0 0 600 200"><path fill="#fff" d="M211.4 58.7h18.4c4.7 0 8.2 1.3 10.4 3.5a8.9 8.9 0 0 1 3.1 6.8c0 1 0 2.2-.3 3.1-.6 1.6-1.6 3.2-2.8 4.4-.6.6-1.3 1-1.9 1.3 2.2.6 4.1 1.8 5.7 3.4a9.3 9.3 0 0 1 1.8 6.3 11 11 0 0 1-1 4.6 10 10 0 0 1-3 3.5c-1.6 1-3.2 1.5-4.8 2.1-1.8.6-4 .6-6.2.6h-19.1V58.6h-.3v.1ZM228.3 75a12 12 0 0 0 4.7-1 3.4 3.4 0 0 0 1.8-3.1c0-1.3-.6-2.5-1.5-3.1a5.3 5.3 0 0 0-4.4-1h-8.8v8.4h8.1V75Zm2.2 16a12 12 0 0 0 4.6-1c1.3-.6 2-1.9 1.6-3.5 0-1.2-.6-2.5-1.6-3s-2.8-1.3-5-1.3h-10.3v8.7h10.7Zm26.2-32.3h8.8v40h-8.8v-40zm22.2 0h8.2l18.7 24.7V58.7h8.7v40h-7.4l-19.7-25.3v25.3h-8.5v-40zm62.2-.3h8.1l17.2 40.3h-9l-3.8-9h-16.9l-3.7 9h-9l17-40.3Zm9.4 23.8L345.2 69l-5.3 13h10.6Zm25.3-23.5h8.1l18.7 24.7V58.7h8.8v40h-7.5l-19.4-25.3v25.3h-8.7v-40zm67.5 40.6c-2.9 0-5.7-.6-8.2-1.5a20.7 20.7 0 0 1-12.4-19 21 21 0 0 1 6-14.7 20 20 0 0 1 15-6c1.4 0 3.3 0 4.9.3 1.5.3 2.8.6 4 1.3l3.5 1.9a17 17 0 0 1 3.1 2.5l-5.3 6.5c-1.6-1.2-3.1-2.5-4.7-3.4s-3.4-1.3-5.3-1.3a12 12 0 0 0-4.7 1c-1.5.6-2.8 1.6-3.7 2.8s-1.9 2.5-2.5 4.1a13 13 0 0 0-1 4.7c0 1.5.3 3.4 1 5s1.2 2.8 2.5 4a11 11 0 0 0 8.4 3.8 13 13 0 0 0 6-1.3 27 27 0 0 0 4.7-3.4l5.6 5.6-3.2 3.1c-1.2 1-2.5 1.6-3.7 2.2a19 19 0 0 1-4.4 1.5c-2.2.3-4 .3-5.6.3Zm26.9-40.6h29.9v7.8h-21.5v8.2h19v7.8h-19v8.4h21.8v7.8h-30.2v-40zm-247.5 79.4c-2.2 0-4.4-.3-6.3-1.3-1.9-.6-3.7-1.8-5.6-3.4l3-3.4c1.3 1.2 2.6 1.8 4.2 2.8 1.5.6 3 1 4.7 1 1.2 0 2.5-.3 3.7-1 1-.6 1.2-1.6 1.2-2.5 0-.3 0-1-.3-1.3s-.6-1-1-1.2l-1.8-1c-1-.3-2.2-.6-3.1-1-1.3-.3-2.8-.6-4-1.2a8.5 8.5 0 0 1-4.8-3.8c-.6-1.2-.6-2.5-.6-3.4 0-1.2.3-2.2.6-3.4.3-1 1.3-1.9 1.9-2.5 1-.6 1.9-1.3 3.1-1.6s2.5-.6 3.7-.6c2 0 3.8.3 5.7 1 1.5.6 3.1 1.5 4.7 2.5l-2.5 3.7c-1.3-1-2.6-1.5-3.8-2.2-1.2-.6-2.5-.6-3.7-.6s-2.5.3-3.4 1c-.6.6-1.3 1.6-1.3 2.5 0 .6 0 1 .3 1.6.3.3.6 1 1 1.2l2.1 1 3.5 1c1.2.3 2.5.6 4 1.2 1 .3 2 1 2.9 1.6.6.6 1.2 1.5 1.5 2.2.3 1 .6 1.8.6 3 0 1.3-.3 2.6-.6 3.5-.6 1-1.2 1.9-2.1 2.8-1 .6-1.9 1.3-3.2 1.6-1.5-.1-3 .2-4.3.2Zm15.6-28.4h5.3l8.4 13.1 8.8-13.1h5.3v28.1h-5v-20.3l-8.8 13.1h-.3l-8.7-13.1v20.3h-5v-28.1zm44.7-.3h4.7l12.2 28h-5.3l-2.9-6.8h-13l-2.9 6.9h-5l12.2-28.1Zm7.2 17.1-5-11.2-4.7 11.3h9.7Zm14.6-16.8h12.5c1.6 0 3.2.3 4.7.6a8 8 0 0 1 3.5 2.1c.6.6 1.2 1.6 1.8 2.9.3 1 .6 2.1.6 3.4 0 1-.3 2.2-.6 3.1-.3 1-1 1.6-1.2 2.5-.6.6-1.3 1.3-2.2 1.9-1 .6-1.9 1-2.8 1.2l7.5 10.7h-6l-6.8-9.7h-6.3v9.7h-5l.3-28.4Zm12.2 13.7c1.6 0 3.1-.3 4.1-1.2a5 5 0 0 0 1.6-3.5c0-1.2-.6-2.5-1.6-3.4a7 7 0 0 0-4.4-1.3h-7.2v9.4h7.5Zm23.8-9.3h-9.1v-4.4h22.8v4.4h-9.1v23.7h-4.9l.3-23.7zm44.1 24c-1.9 0-3.8-.3-5.7-1.3-3.4-1.5-6.2-4-7.5-7.5a17.1 17.1 0 0 1 0-11.3c1.3-3.4 4-6.2 7.5-7.8 1.9-.6 3.8-1.2 6-1.2 1.2 0 2.5 0 3.4.3l2.8 1c1 .2 1.6.9 2.5 1.2l2.2 1.9-3.1 3.7a10.4 10.4 0 0 0-7.8-3.5c-1.3 0-2.5.3-3.8.6a11 11 0 0 0-3 2.2c-1 1-1.6 1.8-2 3.1s-.5 2.5-.5 3.7c0 1.3.3 2.6.6 3.8s1 2.1 1.8 3c1 1 1.9 1.6 3.1 2.3 1.3.5 2.6 1 3.8.5 1.5 0 3.1-.3 4.4-1 1.2-.5 2.5-1.5 3.7-2.7l3.1 3-2.2 2.3c-1 .6-1.5 1.2-2.5 1.5s-1.8 1-3.1 1c-1.3 1.2-2.5 1.2-3.7 1.2Zm16.5-28.4h4.7v11.5h13.4v-11.5h5v28.1h-5v-11.9h-13.4v11.9h-4.7v-28.1zm40.3-.3h4.7l12.2 28h-5.3l-2.8-6.8h-13.1l-2.9 6.9h-5l12.2-28.1Zm6.9 17.1-4.7-11.2-4.7 11.3h9.4Zm15-16.8h5v28.1h-5v-28.1zm12.5 0h4.3l15.1 19.3v-19.3h4.9v28.1h-4l-15.3-20v20h-5v-28.1zM156.4 136v12l-10.6 6.3-10.3-6.3v-12l10.3 6.3 10.6-6.3ZM99.5 93.7 110 100v21l17.8 10.5v12.2l-28.2-16.5V93.6Zm92.6 0v33.4l-28.5 16.6v-12.2l17.8-10.6v-21l10.7-6.2Zm-28.5-16.6 10.6 6.2v12.2l-17.8 10.6v21.2l-10.3 6.3-10.3-6.3v-21.2l-18.4-10.6V83.4L128 77l17.8 10.6 17.8-10.5Zm-46.2 27.1 10.3 6.3v12.2l-10.3-6.3v-12.2Zm56.8 0v12.2l-10.3 6.3v-12.2l10.3-6.3ZM110 66.5l10.6 6.3L110 79v12.2L99.5 85V72.8l10.4-6.3Zm71.8 0 10.7 6.3V85l-10.7 6.2V79l-10.3-6.2 10.3-6.3Zm-35.9 0 10.6 6.3-10.6 6.2-10.3-6.2 10.3-6.3Zm0-20.9 28.4 16.6-10.3 6.3-17.8-10.7L128 68.5l-10.4-6.3 28.2-16.6Z"/><path fill="none" d="M0 0h600v200H0z"/></svg>