<svg xmlns="http://www.w3.org/2000/svg" viewBox="0 0 600 200"><path fill="#fff" d="m259.4 71.8 40.6 24V4.5l-40.6 67.3Z" opacity=".8"/><path fill="#fff" d="M300 4.5v91.3l40.6-24L300 4.6Z" opacity=".9"/><path fill="#fff" d="M398.6 196.5c-9.5 0-14.5-8.4-14.5-16.6v-18.8a2.5 2.5 0 0 1 4.9 0V180c0 5.6 3 11.6 9.6 11.6 7.7 0 11.2-5.8 11.2-18.4v-12a2.5 2.5 0 0 1 3.2-2.3c1 .3 1.8 1.3 1.8 2.4v32c0 1.4-1.2 2.5-2.5 2.5s-2.5-1-2.5-2.4v-2.6a14.1 14.1 0 0 1-11.2 5.8Zm-49.2-.2c-10 0-18-8.6-18-19.3s8-19.2 18-19.2 18 8.6 18 19.2c0 1.4-1.1 2.5-2.5 2.5h-28.2c1 6 5.6 11.8 12.7 11.8 5 0 8.5-1.8 11.2-5.7.6-.8 1.3-1.2 2.1-1.2a2.5 2.5 0 0 1 2.5 2c0 .9-.2 1.4-.3 1.7-3 5.1-8.9 8.2-15.5 8.2Zm12.7-21.7c-1-6-5.5-12-12.7-12s-11.7 6-12.7 12H362Zm-97 21.7c-9.9 0-17.9-8.6-17.9-19.3s8-19.2 18-19.2 18 8.6 18 19.2c0 1.4-1.2 2.5-2.6 2.5h-28.2c1 6 5.7 11.8 12.7 11.8 5 0 8.5-1.8 11.3-5.7.5-.8 1.3-1.2 2-1.2l1 .2c.8.4 1.4 1 1.5 1.9.1.8-.1 1.3-.3 1.6-3 5-8.8 8.2-15.5 8.2Zm12.8-21.7c-1-6-5.6-12-12.8-12s-11.6 6-12.7 12H278Zm-149 21.7c-9.9 0-18-8.6-18-19.3s8.1-19.2 18-19.2 18 8.6 18 19.2c0 1.4-1.1 2.5-2.5 2.5h-28.2c1 6 5.6 11.8 12.7 11.8 5 0 8.5-1.8 11.3-5.7.5-.8 1.3-1.2 2-1.2a2.5 2.5 0 0 1 2.5 2c.1.9-.1 1.4-.3 1.7a18 18 0 0 1-15.5 8.2Zm12.7-21.7c-1-6-5.8-12-12.7-12s-11.7 6-12.7 12h25.4Zm30.6 21.2a2.5 2.5 0 0 1-2.5-2.5v-29.9h-6.5c-1.4 0-2.5-1-2.5-2.5s1.1-2.4 2.5-2.4h6.5v-10.3c0-1.2.9-2.3 2-2.5h.5c1.4 0 2.5 1 2.5 2.4v10.4h6.8c1.4 0 2.5 1.1 2.5 2.4s-1 2.5-2.5 2.5h-6.8v29.9c0 1.3-1.2 2.4-2.5 2.4Zm55.9-.2a2.5 2.5 0 0 1-2.5-2.5v-18.7c0-5.6-3-11.6-9.6-11.6-3.3 0-6 1-8 3.2-2.5 2.7-3.7 7-3.4 11.7V193c0 1.3-.8 2.3-2 2.5h-.4c-.7 0-1.3-.2-1.7-.7-.5-.4-.7-1-.7-1.7v-61.5c0-1.3 1-2.4 2.4-2.4s2.5 1.1 2.5 2.4v31.6c2.9-3.4 7-5.3 11.3-5.3 9.5 0 14.5 8.3 14.5 16.5v18.7c0 1.3-1 2.5-2.4 2.5Zm206.9 0c-.7 0-1.3-.3-1.8-.7-.4-.5-.7-1.1-.7-1.8V161c0-1.2.9-2.3 2-2.5h.5c1.3 0 2.4 1 2.4 2.5v2.1c3-3.3 7-5.2 11.3-5.2 5.5 0 10.1 3 12.6 8 3-5.1 7.7-8 13.1-8 9.6 0 14.6 8.2 14.6 16.4V193c0 1.3-1.1 2.5-2.5 2.5s-2.4-1.1-2.4-2.5v-18.8c0-5.5-3-11.5-9.7-11.5-8.8 0-11.1 10.3-11.1 15.8V193c0 1.3-1.2 2.5-2.5 2.5s-2.5-1.1-2.5-2.5v-18.8c0-5.5-3-11.5-9.6-11.5-3.2 0-5.8 1-7.7 3-2.5 2.5-3.8 6.8-3.6 12.4V193c0 1.2-.8 2.2-2 2.4h-.4Zm-132.2-.1c-.6 0-1.3-.3-1.7-.7-.5-.5-.7-1.1-.7-1.8v-32c0-1.2.8-2.3 2-2.5h.4c1.4 0 2.5 1 2.5 2.5v3.4c2.7-3.2 6.9-5.9 11.3-5.9 1.3 0 2.6 1 2.6 2.4s-.9 2.3-2.3 2.5c-7.2 1-11.6 6.9-11.6 15.5v14c0 1.3-.9 2.3-2 2.5h-.4Z"/><path fill="#fff" d="m300 53.4-40.6 18.4 40.6 24 40.6-24L300 53.4Zm-40.6 26.1 40.6 57.2v-33.2l-40.6-24Z" opacity=".8"/><path fill="#fff" d="M300 103.5v33.2l40.6-57.2-40.6 24Z" opacity=".9"/><path fill="none" d="M0 0h600v200H0z"/></svg>