<svg xmlns="http://www.w3.org/2000/svg" viewBox="0 0 600 200"><path fill="#fff" fill-rule="evenodd" d="M368.9 104.8v-8.2h32.8v3.4a34.8 34.8 0 0 1-32.8 35h-3.6c-18.6-1-33-16.4-32.8-35a34.5 34.5 0 0 1 58.3-25.5l-5.4 6.2a26.5 26.5 0 0 0-18.2-7.6c-14 0-26.6 11.2-26.6 26.9a26.7 26.7 0 1 0 53.2 4.7h-25.2.3Zm80.1 28.8h-38.4V66.4h38.7v8.4h-30.8v19H449v7.9h-30.8v24H449v8.2-.3Zm-136.4-18-42-49h-2.3v67h7.8V85.4l42 48.5h2.3V66.4h-7.8v49.3Zm-64.8 18h7.9V66.4h-8.1v67.2h.2Zm231-30.8c4 .1 8-.5 11.7-2 6.7-3 10-8.4 10-16.2 0-4.2-1-8.1-3.6-11.2-2.4-3-5.9-5.1-9.8-5.9-4.9-.8-9.8-1.2-14.8-1.1h-13.5v67.2h7.9v-30.2h2.8l23 30.2.2.3h9.9l-23.9-30.8v-.3Zm-12.4-7.6V74.8h11c4.1 0 7.5.3 9.2 1.1a8 8 0 0 1 4.5 3.4 10.8 10.8 0 0 1 0 11.2c-2 3.6-6.8 5.3-13.8 5.3h-10.9v-.6Z"/><path fill="#fff" d="M160.4 36.8a63.1 63.1 0 0 0 0 126.4 63.1 63.1 0 0 0 0-126.4Zm35.7 98.3a50.6 50.6 0 1 1-.3-71.5l-9.3 10a37.2 37.2 0 0 0-63.3 26.6 37.3 37.3 0 0 0 73.9 7.4h-35.4V93.9h48.8a50.6 50.6 0 0 1-14.4 41.2Z"/><path fill="none" d="M0 0h600v200H0z"/></svg>