<svg xmlns="http://www.w3.org/2000/svg" viewBox="0 0 600 200"><path fill="#fff" fill-rule="evenodd" d="M221 122.7c-1.6-.7-2.6-2-2.6-3.3a3.3 3.3 0 0 1 5-3.4 20 20 0 0 0 8.3 1.7c6 0 8.7-2.7 8.7-8.3V108c-2.3 3-5.3 5-10 5-7 0-13.4-5.3-13.4-14.3s6.7-14.4 13.4-14.4c5 0 7.6 2 10 4.3 0-2.3 2-4.3 4.3-4.3s4.4 2 4.4 4.3v20c0 5.4-1.4 9.4-4 12.1-2.7 2.7-7 4-13.4 4-3.8 0-7.5-.8-11-2.3l.3.3Zm19.4-24c0-4.4-3.3-7.4-7.4-7.4s-7.3 3-7.3 7c0 4.4 3.3 7.4 7.3 7.4 4.4 0 7.4-3 7.4-7Zm13.7-10c0-2.4 2-4.4 4.3-4.4s4.4 2 4.4 4.3V90c1.3-2.7 3.3-5.7 6-5.7s4 2 4 4.4-1.4 3.6-3.4 4c-4.3 1-6.6 4.3-6.6 10.7v8c0 2.3-2 4.3-4.4 4.3s-4.3-2-4.3-4.3V88.7Zm17.7 18c0-6.7 5.3-10 12.3-10 3.4 0 5.4.6 7.7 1.3v-.7c0-3.3-2.3-5.3-6.7-5.3-2 0-4 .1-6 .7h-1.3a3.3 3.3 0 0 1-3.3-3.4c0-1.3.6-2.7 2.3-3.3 3-1.2 6.4-1.7 9.7-1.7 4.7 0 8.3 1.3 10.3 3.3 2.4 2.4 3.4 6 3.4 10v14.1c0 2.3-2 4-4.4 4s-4-1.7-4-3.3a14 14 0 0 1-9.3 3.3c-5.7 0-10.7-3.3-10.7-9Zm20-2v-2c-1.7-.7-3.5-1-5.3-1-4 0-6 1.3-6 4s1.6 4 4.7 4c4 0 6.6-2.3 6.6-5.3v.3Zm13-16c0-2.4 2-4.4 4.4-4.4s4.3 2 4.3 4.3v.4c2-2.4 4.7-4.7 9-4.7 4 0 7 1.7 8.7 4.7a12 12 0 0 1 10-4.7c6.7 0 10.4 3.7 10.4 11v16c0 2.4-1.7 4.4-4.4 4.4-2.3 0-4.3-2-4.3-4.4V98c0-3.7-1.7-6-5-6s-5.3 2.3-5.3 6.3v13.4c0 2-2 4-4.4 4-2.4 0-4.3-2-4.3-4.3V98c0-3.7-1.7-6-5-6s-5.4 2.3-5.4 6.3v13.4c0 2-2 4-4.3 4s-4.3-2-4.3-4.3V88.7Zm51.8 0c0-2.4 1.7-4.4 4.3-4.4 2.4 0 4.4 2 4.4 4.3v.4c2-2.4 4.7-4.7 9-4.7 4 0 6.7 1.7 8.7 4.7 2.6-3.4 5.7-4.7 10-4.7 6.7 0 10.3 3.7 10.3 11v16c0 2.4-2 4.4-4.3 4.4-2.4 0-4.3-2-4.3-4.4V98c0-3.7-2-6-5-6-3.4 0-5.4 2.3-5.4 6.3v13.4a4.3 4.3 0 0 1-8.7-.3V98c0-3.7-2-6-5.3-6s-5 2.3-5 6.3v13.4a4.3 4.3 0 0 1-8.7-.3V88.7Zm49.8 18c0-6.7 5-10 12.3-10 2.5 0 5 .4 7.4 1.3v-.7c0-3.3-2.4-5.3-6.7-5.3-2 0-4 .1-6 .7h-1a3.3 3.3 0 0 1-3.7-3v-.4c0-1.3 1-2.6 2.3-3.3 3.2-1.2 6.6-1.8 10-1.7 4.4 0 8 1.4 10 3.4 2.4 2.3 3.4 6 3.4 10v14a4.3 4.3 0 0 1-4 4c-2.7 0-4.3-1.7-4.3-3.3-2 2-5 3.3-9.4 3.3-5.7 0-10.3-3.3-10.3-9Zm20-2v-2c-1.8-.8-3.7-1.1-5.7-1-3.6 0-6 1.3-6 4s2 4 4.7 4c4 0 6.7-2.3 6.7-5.3l.3.3Zm12.7-16c0-2.4 2-4.4 4.3-4.4s4.4 2 4.4 4.3V90c1.3-2.7 3.3-5.7 6-5.7s4.3 2 4.3 4.4-1.7 3.6-3.3 4c-4.4 1-6.7 4.3-6.7 10.7v8c0 2.3-2.3 4.3-4.7 4.3-2.4 0-4.3-2-4.3-4.3V88.7Zm21.7-11c0-2.4 1.7-4.4 4.3-4.4 2.4 0 4.4 2 4.4 4.3v33.8c0 2.3-2 4.3-4.4 4.3-2.4 0-4.3-2-4.3-4.3V77.6Zm15.4 46.3c-1-.6-2.7-1.6-2.7-3.6 0-1.9 1.5-3.4 3.3-3.4h3.4c1.6 0 2.3 0 3.3-1.6v-.7l-10.3-24a5 5 0 0 1-.4-2c0-2.7 1.7-4.4 4.4-4.4 2 0 3.3 1.4 4 3.4l6.7 18 6.6-18a4 4 0 0 1 4-3.4c2 0 4 1.7 4 4l-.3 2-10.7 25.7c-2.6 6.4-5.3 8.7-10.3 8.7-2 0-3.4 0-5-.7ZM145 52.4a47.6 47.6 0 1 0 0 95.2 47.6 47.6 0 0 0 0-95.2Zm27 72.7-.1.3a3.3 3.3 0 0 1-3.7 3 3.2 3.2 0 0 1-2.6-3.4v-3.3l.6-3.3c-5.2 6.1-13 9.6-21 9.6a27.7 27.7 0 1 1-2-55.4A28 28 0 0 1 168.6 85c.8 1.5.4 3.3-1 4.3s-3.4.3-4.4-1c-4-5.3-10.7-10-18-10a21.8 21.8 0 0 0-20 30 20 20 0 0 0 16 12.7c8.7 1.4 16.7-2 21.4-8.6l-3 .6h-5c-1.7 0-3-1.3-3.4-2.6v.3-.8c0-1.8 1.5-3.3 3.4-3.2h17.3V125Z"/><path fill="none" d="M0 0h600v200H0z"/></svg>