<svg xmlns="http://www.w3.org/2000/svg" viewBox="0 0 600 200"><path fill="#fff" d="M488.6 67.8c3.1-.8 6.3-.1 9.5-.4l3.1-.1v64.3l-10-.1c-.9 0-1.8.4-2.6-.4 1.7-1.4 3.7-.8 5.5-1 6.2 0 5.7.6 5.7-5.8V71c.1-1.8-.9-2.5-2.5-2.5h-5.5c-1.2 0-2.4.3-3.2-.7Z"/><path fill="#fff" d="M500.7 69.9c0-1.5-.4-2-1.9-2l-10.2-.1c-.7.7-.3 1.7-.3 2.5v21c0 .7.3 1.5-.6 2a11.5 11.5 0 0 0-6.7-7c-7.4-3-15.9 0-19.7 7a36.7 36.7 0 0 0 .1 31.1c4.4 8.4 16.2 10.8 23 4.7 1.5-1.5 2.7-3.3 3.5-5.3.6 2.7-.2 5 .6 7.3l10.2-.1c1.5 0 2-.5 2-2V70Zm-12.5 44c0 5.6-3.2 8.5-8.8 8a8 8 0 0 1-7.7-6.8c-.7-4.1-.7-8.3 0-12.5 1-6.7 8.4-9.6 14-5.5 1.5 1 2.4 2.8 2.4 4.6v7l.1 5.3ZM290 101.5c0 2.7-.3 5.6.3 8.6 1.1 5.9 4.5 9.5 10.1 10.5s10.6-1.3 13.3-6.5c1-2 1.6-2.1 3.3-1a70 70 0 0 0 7 4c1.2.6 1.2 1.2.6 2.4-5 9.7-15.3 14.5-27.2 12.6a22.7 22.7 0 0 1-19.2-16 42.7 42.7 0 0 1 1.2-31.8 24.3 24.3 0 0 1 24-14.1c9.1.3 16.2 3.8 20.7 12 .8 1.5 1 2.4-.9 3.2-2.7 1.2-5.2 2.7-7.9 4-.8.5-1.5 1-2-.3-2.3-6.8-9-8-14.6-6.6s-8.9 6.3-9 12.9l.2 6Zm-51-20.6c-6 12-12.7 23.8-19.4 36-6.6-12.2-13.3-24-19.9-36v47.8c0 1.9-.2 2.8-2.5 2.7-4.7-.2-4.7 0-4.7-4.8V73.5c0-2 .4-2.5 2.4-2.5 7.1 0 7.1 0 10.5 6.3l13.8 25.8.2.2c1 0 1-1 1.2-1.4L236 73.4c1-1.6 1.8-2.6 3.8-2.3 2.2.3 5.1-1 6.5.5s.4 4.3.4 6.5l.1 50.5c0 2.2-.4 3-2.8 2.9-4.4-.2-4.4 0-4.4-4.4V81l-.5-.2Zm-69.5 19.4c-.2-.5-1.4 0-1-1a12 12 0 0 0 5.8-3.8c4.8-6 3.1-17.2-3.3-21.5-3.2-2-6.9-3-10.7-3-7.3 0-14.6.2-22 0-1.9 0-2.3.6-2.3 2.4v55.9c0 1-.2 2 1.5 2 9.1 0 18.3.2 27.4-.2 7.2-.3 12.7-6.3 13.8-14.1 1.3-8.1-1.8-13.8-9.2-16.7Zm-26-21.2c0-1.1.3-1.5 1.4-1.5h16.7c4.4.3 7 2.8 7.6 7.2.2 1.7.2 3.5.1 5.2-.5 4-3.3 6.7-7.5 7-2.9.2-5.7 0-8.6 0h-8c-1.3 0-1.8-.2-1.8-1.5V79Zm27.8 37.6c-.4 4.8-3 7.9-7.9 8-6.2.4-12.3.2-18.5.3-1.2 0-1.5-.5-1.4-1.6V105c0-1.2.3-1.7 1.7-1.7h17c5.6.2 8.7 3.2 9.2 8.9v4.5Zm226.9-18A19.3 19.3 0 0 0 379.5 85c-10-.3-17 4-20.4 12.7-2 5.8-2.5 12-1.2 18a21 21 0 0 0 32.6 13.2c7.2-5 9-12.2 9.2-20.3.1-3.4-.5-6.7-1.5-10Zm-12 17.3c-.7 4-3.6 6.4-7.9 6.4s-6.9-2.3-7.5-6.5a57 57 0 0 1 0-14.3c.6-4.2 3.7-6.5 8-6.4 4 0 6.7 2.4 7.4 6.6.5 2.5.2 5 .3 8.4a29 29 0 0 1-.3 5.8Zm49.5 8c-2 3.7-4.5 6.7-8.7 7.8-8.6 2.3-15.6-1.6-17.8-10.2-.6-2.5-.8-5-.8-7.5V88c0-1.5.2-2.2 2.1-2.1 3 .2 5.7.2 8.6 0 1.7-.1 2.2.5 2.1 2.2v23.5l.1 3c.2 4.8 2.6 7.5 6.8 7.3 4.3-.3 8-2.6 7.8-7.6-.2-8.7 0-17.5 0-26.1 0-2 .4-2.4 2.2-2.3 3 .2 6 0 9 0 1.2 0 1.5.4 1.5 1.6v42c0 1.5-.5 1.8-1.8 1.8h-9c-1.4 0-2-.4-1.9-1.7l-.2-5.6Zm-89-29.4c0 8.2.1 16.4 0 24.6 0 2 .5 2.7 2.4 2.4 2.8-.5 3.8.7 3.3 3.3v1.3q0 5.4-5.3 5.2c-1.6 0-3-.1-4.7-.4-4.2-.7-7.5-4-8-8.2-.4-1.7-.6-3.4-.6-5.2V70c0-2 .3-2.8 2.4-2.6 2.7.2 5.4.2 8.1 0 1.7-.1 2.4.4 2.3 2.3l.1 24.8Zm-232.2 6.8v21.9c0 1.6.4 2.2 2.1 2h3.1c2.7-.4 3.5.6 3.4 3.3 0 2.3-.5 3-2.9 2.9-6.3-.2-12.7-.1-19 0-1.8 0-2.7-.4-2.4-2.3v-1.8c-.2-1.5.2-2.2 2-2.1 1.5.2 3-.1 4.6 0 1.6.2 2-.4 2-2V79c0-1.3-.4-2-1.8-1.8H102c-2.5.4-3.2-.4-3.2-3s.6-3.2 3.2-3.1c6.3.2 12.5 0 18.8 0 1.8 0 2.6.4 2.3 2.3v2.4c.1 1.2-.4 1.5-1.5 1.5l-5-.1c-1.7-.1-2 .4-2 2v22.2Z"/><path fill="none" d="M0 0h600v200H0z"/></svg>