<svg xmlns="http://www.w3.org/2000/svg" viewBox="0 0 600 200"><path fill="#fff" d="M300 77.1c-3 0-5.8.5-8 1.8a13.5 13.5 0 0 0-5.4 5.8V78h-13.5v45.3h13.5V96c0-2.3 0-3.6.9-5 .9-1.3 1.8-2.7 3.1-3.1a9 9 0 0 1 4.5-1.4c2.7 0 4.5 1 5.9 2.3 1.3 1.8 1.8 4 1.8 7.1v27.4h13.4V94.6c0-5.8-1.3-9.9-4-13-2.7-3.2-6.7-4.5-12.1-4.5Zm-82.1-22.9H204v69.1h41.8v-12.1h-27.9v-57zm44.1.9a6.7 6.7 0 0 0-5-1.8c-2.3 0-4.5.5-5.9 1.8s-2.2 3.1-2.2 5.4c0 1.8.9 3.6 2.2 5a9.4 9.4 0 0 0 5.9 2.2c1.8 0 3.6-1 5-2.3a6.2 6.2 0 0 0 2.6-4.9c0-2.2-.9-4-2.7-5.4ZM250.7 78h11.7v45.3h-11.7zm232.1 22 17.1-22h-14l-9.4 13.5-9-13.5h-14.8l17.1 22.5-18 22.8h14.8l9.9-14.3 10.3 14.3h14l-18-23.3zm-159.8.5v-.5.5Zm118.5-47.2c-2.2 0-4 .5-5.4 1.8-1.8 1.4-2.2 3.1-2.2 5.4 0 1.8.4 3.6 2.2 5a7.4 7.4 0 0 0 5.4 2.2 9 9 0 0 0 5.4-2.3 7.2 7.2 0 0 0 2.2-4.9c-.2-4-3.6-7.2-7.6-7.2ZM435.2 78h12.1v45.3h-12.1zm-75 7.3c-1.3-2.2-3.2-4-5.4-5.5a18 18 0 0 0-10.3-2.7 24 24 0 0 0-10.8 2.7 26.1 26.1 0 0 0-8 7.6 28 28 0 0 0-2.7 12.8c-.1 4.6.8 9.1 2.7 13.3a22 22 0 0 0 29.1 7.6 18 18 0 0 0 5.4-5.5v6.8a17 17 0 0 1-1.8 7.2 10.8 10.8 0 0 1-4.5 4.5c-1.8 1.4-4 1.8-6.2 1.8s-4.5-.4-5.9-1.3a9.8 9.8 0 0 1-4-3.2 9 9 0 0 1-1.8-5.4h-12.2v1c0 3.5 1 7.1 3.2 10.3 1.9 3.1 4.7 5.6 8 7.1 3.7 1.4 8.1 2.3 13.5 2.3 4 0 8-.8 11.7-2.3a23 23 0 0 0 9-8 25 25 0 0 0 3.1-13.5V77.5h-12v7.8Zm-1.8 21.9c-2 3.5-5.8 5.7-9.8 5.8-2.2 0-4.4-.4-6.3-1.3-1.8-1.4-3.6-2.7-4.5-4.5-1.2-2-1.8-4.4-1.8-6.7l.4-.5c0-2.2 0-4.5 1.4-6.7.9-1.8 2.7-3.2 4.5-4.5 2-1 4-1.4 6.2-1.4l4.5 1 3.2 2.6 3.1 3.6 1 5.9c0 2.3-.7 4.6-1.9 6.7Zm53-1.4c0 1.8-.4 3.6-1.3 4.5-.5 1.8-1.8 2.7-3.2 3.6s-2.7 1-4.5 1c-2.7 0-4.5-.5-5.8-2.3-1.4-1.8-1.8-4-1.8-6.7h.4V77.6h-13.4v29.2c0 5.3 1.3 9.4 4.5 12.5 2.2 3.2 6.2 4.5 11.6 4.5a16 16 0 0 0 8.6-1.8c2.3-1.4 4.2-3.4 5.3-5.8v6.7H424V78h-12.6v27.8ZM138.2 132a1.7 1.7 0 0 1-1.8 0l-12.8-7.9-18.2 10.4v5l14.5 8.3h34.7l14.3-8.3v-5L150.7 124l-12.5 7.8ZM122 66.8h-16.6v63.8l16.6-9.4V66.8z"/><path fill="#fff" d="M149 121.2V66.8h-23.7v54.4l12 7.4 11.7-7.4zm-43.6-57.8h63.5v-5.8h-63.5v5.8zm46.9 57.8 16.6 9.4V66.8h-16.6v54.4z"/><path fill="#fff" d="M170.6 35.8h-66.9c-2.4 0-4.4 2-4.4 4.5v100.2c0 1.6.8 3.1 2.2 4l14.9 8.4.7.5 18 10.2a4.5 4.5 0 0 0 4.4 0l33.3-19.2a4.5 4.5 0 0 0 2.3-4V40.3c0-2.4-2-4.4-4.5-4.4Zm1.7 20.2v84.5c0 .6-.4 1.2-.9 1.5l-33.3 19.2a1.7 1.7 0 0 1-1.7 0l-18-10.2-.1-.2-15.4-8.8c-.5-.3-.9-.9-.9-1.5V40.2c0-.9.8-1.6 1.7-1.6h66.9c.9 0 1.6.7 1.6 1.6V56Z"/><path fill="#fff" d="M105.4 41.9h63.5v12.3h-63.5z"/><path fill="none" d="M0 0h600v200H0z"/></svg>