<svg xmlns="http://www.w3.org/2000/svg" viewBox="0 0 600 200"><path fill="#fff" fill-rule="evenodd" d="M391.8 81.3c-5.5 0-9.7 2.1-11.8 5.6l-1 2v-6.5h-9v40.2h9.7v-24c0-5.5 3-9 8.6-9 5.2 0 8 3.2 8 8.7v24.3h9.7v-26c-.4-9.4-5.5-15.3-14.2-15.3Zm-46.8 0c-11.4 0-18.3 7.3-18.3 18.7v5.6c0 11 7.2 17.7 18.7 17.7 7.6 0 13.1-2.8 16.3-8.7l-6-3.5a13.2 13.2 0 0 1-10.3 5.6c-6 0-9.4-3.5-9.4-9.7v-1.8h27v-6.5c-.3-10.4-7.2-17.4-18-17.4Zm9 18h-18v-1c0-6.6 3.1-10.4 9-10.4 5.6 0 9 3.5 9 9.7v1.7Zm147.6-23.5v-7.6h-33.2v7.6H480v39.1h-11.7v7.7h33.2v-7.7h-11.8V75.8h11.8ZM248.4 67c-15 0-24.3 9.4-24.3 24.3v8c0 14.8 9.4 24.2 24.3 24.2s24.2-9.3 24.2-24.3v-8c0-14.8-9.3-24.2-24.2-24.2Zm14.2 33c0 10-5.2 15.5-14.2 15.5s-14.2-5.5-14.2-15.6v-9.3c0-10 5.2-15.6 14.2-15.6s14.2 5.5 14.2 15.6v9.3ZM303 81.6c-5.2 0-9.3 2-11.8 5.5l-1 1.4v-6.2h-9v54h9.7V117l1 1.4c2 3.1 6.6 5.2 11.4 5.2 8.4 0 16.7-5.5 16.7-17.7V99c-.4-8.6-5.6-17.7-17-17.3Zm7 23.9c0 6.6-3.9 10.4-9.8 10.4-5.5 0-9.7-4.2-9.7-10.4v-5.9c0-6.2 3.8-10.4 9.7-10.4s9.7 4.2 9.7 10.4v5.9Zm122.2-37.4L413 122.6h9.7l3.8-11.8H449l3.8 11.4h9.7L443 67.8l-10.8.4Zm-3.4 35 8.6-27.4 8.7 27.4h-17.3ZM198 90.3a26.1 26.1 0 0 0-2.2-22A26.6 26.6 0 0 0 167 55.5c-6.4-7-16-10.2-25.7-8.6A28 28 0 0 0 121 65.1c-7.5 1.6-14 6.5-17.7 12.9a26.6 26.6 0 0 0 3.2 31.6 26.1 26.1 0 0 0 2.2 22 26.6 26.6 0 0 0 28.9 12.8 27 27 0 0 0 46-9.6c7.5-1.7 14-6.5 17.7-13 5.9-10 4.8-23-3.2-31.5Zm-40.2 56.2c-4.8 0-9-1.6-12.8-4.8l.5-.5 21.4-12.3c1.1-.6 1.6-1.7 1.6-3.3v-30l9.1 5.4v25.2c0 11.2-8.5 20.3-19.8 20.3Zm-43.3-18.7c-2.2-4.3-3.3-8.6-2.2-13.4l.6.5 21.4 12.4c1 .5 2.1.5 3.7 0l26.3-15V123l-21.5 12.3a21.3 21.3 0 0 1-28.3-7.5Zm-5.4-46c2.1-4.3 5.9-7 10.7-8.6v25.1c0 1.1.6 2.2 1.6 3.3l25.7 15-9 5.3h-.6l-21.4-12.3c-9.1-6.5-12.4-18.8-7-27.9Zm73.9 17-25.7-15 9.1-5.3h.5L188.5 91a20 20 0 0 1 10.1 19.2 20.6 20.6 0 0 1-12.8 17.2V102a5.5 5.5 0 0 0-2.8-3Zm9.1-13.3-.5-.5-21.5-12.4c-1-.5-2.6-.5-3.7 0l-25.7 15V77l21.4-12.3c7-3.8 15-3.8 21.4 1a20.1 20.1 0 0 1 8.6 19.9ZM136 103.7l-9.1-5.3V73.2c0-8 4.3-15 11.8-18.2 7-3.2 15.5-2.2 21.4 2.7l-.6.5-21.4 12.3c-1 .6-1.6 1.6-1.6 3.2l-.5 30Zm4.8-10.7 11.8-6.4 11.8 6.4v13.4l-11.8 6.4-11.8-6.4V93Z"/><path fill="none" d="M0 0h600v200H0z"/></svg>