<svg xmlns="http://www.w3.org/2000/svg" viewBox="0 0 600 200"><path fill="#fff" d="M234 117.2c-4.3 0-8.2-1-11.7-2.8a22 22 0 0 1-8.4-7.9 22 22 0 0 1-3-11.4 21.3 21.3 0 0 1 11.4-19.3 24.9 24.9 0 0 1 23.1 0A21.4 21.4 0 0 1 256.7 95a21.9 21.9 0 0 1-11.3 19.4 24 24 0 0 1-11.5 2.8Zm0-9.6c3.4 0 6.3-1 8.5-3.4s3.2-5.3 3.2-9.1-1.1-6.9-3.2-9.1c-2.2-2.4-5-3.5-8.6-3.5s-6.5 1.2-8.6 3.4c-2.2 2.2-3.2 5.3-3.2 9s1 7 3.2 9.2c2.1 2.4 5 3.5 8.6 3.5Zm39.7-20.2c1-1.6 2.5-3 4.4-4 1.8-1 4-1.4 6.6-1.4 3 0 5.5.7 8 2.1s4.2 3.5 5.5 6.2c1.4 2.7 2.2 5.7 2.2 9.3s-.8 6.6-2.2 9.3-3.2 4.7-5.5 6.2a15.6 15.6 0 0 1-14.6.6 11 11 0 0 1-4.4-3.8v15h-10.9V82.5h10.9v4.9Zm15.5 12.1a8 8 0 0 0-2.3-6.1c-1.5-1.5-3.4-2.2-5.6-2.2s-4 .7-5.6 2.2c-1.5 1.5-2.2 3.6-2.2 6.2s.7 4.7 2.2 6.3c1.5 1.4 3.4 2.2 5.6 2.2s4-.7 5.6-2.2a8.4 8.4 0 0 0 2.3-6.4Zm50.3-.5c0 1 0 2.1-.2 3.1h-24.6c.2 2.2.8 3.8 2.1 5s2.8 1.6 4.7 1.6c2.7 0 4.6-1 5.6-3.3h11.7c-.6 2.2-1.7 4.3-3.3 6-1.5 1.8-3.4 3.3-5.7 4.3s-5 1.6-7.9 1.6c-3.4 0-6.5-.7-9.2-2.1s-4.9-3.5-6.4-6.2-2.3-5.7-2.3-9.3.7-6.7 2.2-9.3c1.5-2.7 3.7-4.7 6.4-6.1s5.8-2.2 9.3-2.2 6.6.7 9.3 2 4.7 3.4 6.2 6c1.4 2.5 2.1 5.5 2.1 9Zm-11.1-2.7c0-1.8-.7-3.3-2-4.3a7.6 7.6 0 0 0-9.4 0 7 7 0 0 0-2.3 4.4h13.7v-.1ZM367 82.2c4.1 0 7.4 1.3 9.9 3.9s3.7 6 3.7 10.6v20h-10.8V98.1c0-2.3-.6-4-1.8-5.3-1.2-1.3-3-1.8-5-1.8s-3.7.6-4.9 1.8a7.5 7.5 0 0 0-1.9 5.3v18.6h-11V82.4h11V87c1-1.5 2.5-2.7 4.4-3.5 1.9-.9 4-1.3 6.3-1.3Zm37.3 35c-3.3 0-6.2-.6-8.8-1.6s-4.7-2.5-6.3-4.5c-1.4-2-2.3-4.5-2.4-7.3h11.6c.2 1.6.8 2.8 1.8 3.7 1 .9 2.2 1.3 3.8 1.3s2.9-.4 3.8-1c1-.8 1.4-1.8 1.4-3 0-1-.4-2-1.1-2.6a8.7 8.7 0 0 0-2.7-1.7c-1-.5-2.6-1-4.5-1.6-3-.8-5.3-1.7-7.1-2.6a10.5 10.5 0 0 1-6.7-10.4c0-4 1.5-7.2 4.5-9.4 3-2.3 7-3.4 11.9-3.4s8.9 1 11.9 3.4a12 12 0 0 1 4.8 9.5h-11.8a4.7 4.7 0 0 0-1.6-3.3c-1-.8-2.2-1.2-3.7-1.2-1.3 0-2.4.4-3.2 1-.8.7-1.2 1.6-1.2 3 0 1.3.7 2.4 2 3.2s3.5 1.6 6.4 2.5c2.9 1 5.2 1.9 7 2.7 1.8.8 3.4 2.1 4.7 3.7 1.3 1.7 2 3.7 2 6.3 0 2.5-.7 4.7-2 6.7s-3.2 3.7-5.6 4.9a20.6 20.6 0 0 1-9 1.7ZM460.8 99c0 1 0 2.1-.2 3.1H436c.2 2.2.8 3.8 2.1 5s2.8 1.6 4.7 1.6c2.7 0 4.6-1 5.7-3.3H460c-.6 2.2-1.7 4.3-3.3 6-1.5 1.8-3.4 3.3-5.7 4.3s-5 1.6-7.8 1.6c-3.5 0-6.6-.7-9.3-2.1s-4.9-3.5-6.4-6.2-2.3-5.7-2.3-9.3.8-6.7 2.2-9.3c1.5-2.7 3.7-4.7 6.4-6.1s5.8-2.2 9.4-2.2 6.5.7 9.2 2 4.7 3.4 6.2 6c1.4 2.5 2.1 5.5 2.1 9Zm-11.1-2.7c0-1.8-.7-3.3-2-4.3a7.6 7.6 0 0 0-9.4 0 7 7 0 0 0-2.3 4.4h13.7v-.1Zm14.7 3.2c0-3.5.7-6.6 2-9.3s3.3-4.7 5.8-6.1a15.7 15.7 0 0 1 14.6-.6c1.9 1 3.3 2.2 4.3 3.9v-4.9H502v34.3h-10.9V112c-1 1.6-2.5 2.9-4.4 3.9a15.4 15.4 0 0 1-14.5-.7 15.3 15.3 0 0 1-5.7-6.2 21 21 0 0 1-2-9.5Zm26.6.1c0-2.6-.7-4.6-2.3-6.2-1.5-1.5-3.3-2.2-5.5-2.2s-4 .7-5.6 2.2c-1.4 1.5-2.2 3.5-2.2 6.1s.8 4.8 2.2 6.3c1.5 1.5 3.4 2.2 5.6 2.2s4-.7 5.5-2.2c1.6-1.4 2.3-3.6 2.3-6.2ZM144.5 53.5a46.5 46.5 0 1 0 0 93 46.5 46.5 0 0 0 0-93Zm-23.5 48 .1-.2 12.1-18.9c.2-.2.6-.2.8.1 2 4.6 3.7 10.2 3 13.7a19.6 19.6 0 0 1-3 6l-.3.1h-12.5c-.3 0-.4-.4-.3-.7Zm53.8 6.6c0 .2-.1.3-.3.4-1 .3-4.2 1.8-5.5 3.7-3.4 4.7-6 11.5-11.8 11.5H133c-8.6 0-15.6-7-15.6-15.6v-.3c0-.2.2-.4.4-.4h13.7c.2 0 .4.3.4.5 0 .8.1 1.8.5 2.6a4.7 4.7 0 0 0 4.3 2.6h6.7v-5.2h-6.6c-.4 0-.6-.4-.4-.7l.3-.3a59.8 59.8 0 0 0 4-7.2l.3-.6.4-1 .3-.9.3-3-.1-1.4-.1-1.4-.2-1.2-.4-1.8v-.2l-.4-1.2-1.3-3.7-.6-1.4-.8-1.9-.4-.7-.4-.9-.3-.5-.8-1.5c0-.2 0-.5.3-.4l5 1.4.7.2.8.2h.3v-3c0-1.5 1.2-2.7 2.6-2.7.7 0 1.4.3 1.8.7s.8 1.2.8 1.9v4.5l.5.1.1.1.6.5c.2.2.3.4.6.5l1.8 1.5.5.5 2.7 2.7.7.8.7 1 1 1.2.3.6 1 1.7.4.8c.4.8.7 1.5.8 2.4v.4l.1.8v2.4l-.3 1-.4 1-1 2-.5.7-.4.7-.7.9-.6.8-1 1.1-.6.7-.7.7-.8.7-.6.4-.2.1h-4.1v5.2h5c1.2 0 2.3-.3 3.1-1l3.2-3.1.2-.1 14.1-4.1c.6-.3.8-.1.8.2v3Z"/><path fill="none" d="M0 0h600v200H0z"/></svg>