<svg xmlns="http://www.w3.org/2000/svg" viewBox="0 0 76 28"><path fill="#ffffffcc" d="M8 4h16v4H8zm0 16h16v4H8zM4 8h4v12H4zm28-4h12v4H32zm12 4v4H32V8h-4v16h4v-8h12v8h4V8h-4zm24-4v12h-4v4h4v4h4V4h-4zM56 8V4h-4v20h4V12h4V8h-4zm4 4h4v4h-4z"/><path stroke="#3f538d" d="M0 4h76M0 8h76M0 12h76M0 16h76M0 20h76M0 24h76M4 4v20M4 0v28M8 0v28m4-28v28m4-28v28m4-28v28m4-28v28m4-28v28m4-28v28m4-28v28m4-28v28m4-28v28m4-28v28m4-28v28m4-28v28m4-28v28m4-28v28m4-28v28m4-28v28" vector-effect="non-scaling-stroke"/></svg>