<svg xmlns="http://www.w3.org/2000/svg" width="260" height="1200" viewBox="0 0 260 1200"><path d="M0 0h260v1200H0z" style="fill:none"/><path d="M19.23 14.15h6.31v12.63h18.94V14.15h6.31v31.48h-6.31V33.09H25.54v12.54h-6.31V14.15ZM57.22 20.46h6.31V39.4h-6.31V20.46Zm6.31-6.31h18.94v6.31H63.53v-6.31Zm0 25.25h18.94v6.23H63.53V39.4Zm18.94-18.94h6.31V39.4h-6.31V20.46ZM95.21 14.15h6.31v6.31h6.31v6.31h-6.31v18.85h-6.31V14.15Zm12.63 12.63h6.31v6.31h-6.31v-6.31Zm12.63-12.63h6.31v31.48h-6.31V39.4h-6.31v-6.31h6.31V14.15ZM133.19 14.15h31.56v6.31H139.5v6.31h18.94v6.31H139.5v6.31h25.25v6.23h-31.56V14.15ZM171.18 20.46h6.31v6.31h-6.31v-6.31Zm0 18.94h25.25v6.23h-25.25V39.4Zm6.31-25.25h25.25v6.31h-25.25v-6.31Zm0 12.63h18.94v6.31h-18.94v-6.31Zm18.94 6.31h6.31v6.31h-6.31v-6.31ZM209.17 14.15h31.56v6.31H228.1v25.17h-6.31V20.46h-12.63v-6.31Z" style="fill:#fff"/><path d="M15.02 18.36h6.31v12.63h18.94V18.36h6.31v31.48h-6.31V37.3H21.33v12.54h-6.31V18.36ZM53.01 24.68h6.31v18.94h-6.31V24.68Zm6.31-6.31h18.94v6.31H59.32v-6.31Zm0 25.25h18.94v6.23H59.32v-6.23Zm18.94-18.94h6.31v18.94h-6.31V24.68ZM90.99 18.36h6.31v6.31h6.31v6.31H97.3v18.85h-6.31V18.35Zm12.63 12.63h6.31v6.31h-6.31v-6.31Zm12.63-12.63h6.31v31.48h-6.31v-6.23h-6.31V37.3h6.31V18.36ZM128.98 18.36h31.56v6.31h-25.25v6.31h18.94v6.31h-18.94v6.31h25.25v6.23h-31.56V18.35ZM166.97 24.68h6.31v6.31h-6.31v-6.31Zm0 18.94h25.25v6.23h-25.25v-6.23Zm6.31-25.25h25.25v6.31h-25.25v-6.31Zm0 12.63h18.94v6.31h-18.94V31Zm18.94 6.31h6.31v6.31h-6.31v-6.31ZM204.95 18.36h31.56v6.31h-12.63v25.17h-6.31V24.67h-12.63v-6.31Z" style="fill:#0067b4"/><path d="M23.45 9.94h6.31v12.63H48.7V9.94h6.31v31.48H48.7V28.88H29.76v12.54h-6.31V9.94ZM61.43 16.25h6.31v18.94h-6.31V16.25Zm6.31-6.31h18.94v6.31H67.74V9.94Zm0 25.25h18.94v6.23H67.74v-6.23Zm18.94-18.94h6.31v18.94h-6.31V16.25ZM99.42 9.94h6.31v6.31h6.31v6.31h-6.31v18.85h-6.31V9.94Zm12.63 12.63h6.31v6.31h-6.31v-6.31Zm12.63-12.63h6.31v31.48h-6.31v-6.23h-6.31v-6.31h6.31V9.94ZM137.41 9.94h31.56v6.31h-25.25v6.31h18.94v6.31h-18.94v6.31h25.25v6.23h-31.56V9.94ZM175.4 16.25h6.31v6.31h-6.31v-6.31Zm0 18.94h25.25v6.23H175.4v-6.23Zm6.31-25.25h25.25v6.31h-25.25V9.94Zm0 12.63h18.94v6.31h-18.94v-6.31Zm18.94 6.31h6.31v6.31h-6.31v-6.31ZM213.38 9.94h31.56v6.31h-12.63v25.17H226V16.25h-12.63V9.94Z" style="fill:#ed0677"/><path d="M19.23 14.15h6.31v12.63h18.94V14.15h6.31v31.48h-6.31V33.09H25.54v12.54h-6.31V14.15ZM57.22 20.46h6.31V39.4h-6.31V20.46Zm6.31-6.31h18.94v6.31H63.53v-6.31Zm0 25.25h18.94v6.23H63.53V39.4Zm18.94-18.94h6.31V39.4h-6.31V20.46ZM95.21 14.15h6.31v6.31h6.31v6.31h-6.31v18.85h-6.31V14.15Zm12.63 12.63h6.31v6.31h-6.31v-6.31Zm12.63-12.63h6.31v31.48h-6.31V39.4h-6.31v-6.31h6.31V14.15ZM133.19 14.15h31.56v6.31H139.5v6.31h18.94v6.31H139.5v6.31h25.25v6.23h-31.56V14.15ZM171.18 20.46h6.31v6.31h-6.31v-6.31Zm0 18.94h25.25v6.23h-25.25V39.4Zm6.31-25.25h25.25v6.31h-25.25v-6.31Zm0 12.63h18.94v6.31h-18.94v-6.31Zm18.94 6.31h6.31v6.31h-6.31v-6.31ZM209.17 14.15h31.56v6.31H228.1v25.17h-6.31V20.46h-12.63v-6.31ZM57.22 74.06h6.31v12.63h12.63V93H63.53v12.54h-6.31V74.06Zm18.94 6.31h6.31v6.31h-6.31v-6.31Zm0 12.63h6.31v6.31h-6.31V93Zm6.31-18.94h6.31v6.31h-6.31v-6.31Zm0 25.25h6.31v6.23h-6.31v-6.23ZM95.21 74.06h31.56v6.31h-12.63v18.94h12.63v6.23H95.21v-6.23h12.63V80.37H95.21v-6.31ZM133.19 74.06h6.31v6.31h6.31v6.31h-6.31v18.85h-6.31V74.05Zm12.63 12.63h6.31V93h-6.31v-6.31Zm12.63-12.63h6.31v31.48h-6.31v-6.23h-6.31V93h6.31V74.06ZM171.18 74.06h25.25v6.31h-18.94v18.94h18.94v6.23h-25.25V74.06Zm25.25 6.31h6.31v18.94h-6.31V80.37Z" style="fill:#fff"/><path d="M53.01 78.27h6.31V90.9h12.63v6.31H59.32v12.54h-6.31V78.27Zm18.94 6.31h6.31v6.31h-6.31v-6.31Zm0 12.63h6.31v6.31h-6.31v-6.31Zm6.31-18.94h6.31v6.31h-6.31v-6.31Zm0 25.25h6.31v6.23h-6.31v-6.23ZM90.99 78.27h31.56v6.31h-12.63v18.94h12.63v6.23H90.99v-6.23h12.63V84.58H90.99v-6.31ZM128.98 78.27h6.31v6.31h6.31v6.31h-6.31v18.85h-6.31V78.26Zm12.63 12.63h6.31v6.31h-6.31V90.9Zm12.63-12.63h6.31v31.48h-6.31v-6.23h-6.31v-6.31h6.31V78.27ZM166.97 78.27h25.25v6.31h-18.94v18.94h18.94v6.23h-25.25V78.27Zm25.25 6.31h6.31v18.94h-6.31V84.58Z" style="fill:#0067b4"/><path d="M61.43 69.84h6.31v12.63h12.63v6.31H67.74v12.54h-6.31V69.84Zm18.94 6.31h6.31v6.31h-6.31v-6.31Zm0 12.63h6.31v6.31h-6.31v-6.31Zm6.31-18.94h6.31v6.31h-6.31v-6.31Zm0 25.25h6.31v6.23h-6.31v-6.23ZM99.42 69.84h31.56v6.31h-12.63v18.94h12.63v6.23H99.42v-6.23h12.63V76.15H99.42v-6.31ZM137.41 69.84h6.31v6.31h6.31v6.31h-6.31v18.85h-6.31V69.83Zm12.63 12.63h6.31v6.31h-6.31v-6.31Zm12.63-12.63h6.31v31.48h-6.31v-6.23h-6.31v-6.31h6.31V69.84ZM175.39 69.84h25.25v6.31H181.7v18.94h18.94v6.23h-25.25V69.84Zm25.25 6.31h6.31v18.94h-6.31V76.15Z" style="fill:#ed0677"/><path d="M57.22 74.06h6.31v12.63h12.63V93H63.53v12.54h-6.31V74.06Zm18.94 6.31h6.31v6.31h-6.31v-6.31Zm0 12.63h6.31v6.31h-6.31V93Zm6.31-18.94h6.31v6.31h-6.31v-6.31Zm0 25.25h6.31v6.23h-6.31v-6.23ZM95.21 74.06h31.56v6.31h-12.63v18.94h12.63v6.23H95.21v-6.23h12.63V80.37H95.21v-6.31ZM133.19 74.06h6.31v6.31h6.31v6.31h-6.31v18.85h-6.31V74.05Zm12.63 12.63h6.31V93h-6.31v-6.31Zm12.63-12.63h6.31v31.48h-6.31v-6.23h-6.31V93h6.31V74.06ZM171.18 74.06h25.25v6.31h-18.94v18.94h18.94v6.23h-25.25V74.06Zm25.25 6.31h6.31v18.94h-6.31V80.37ZM38.23 133.97h6.31v25.25h-6.31v-25.25Zm6.31 25.25h18.94v6.23H44.54v-6.23Zm18.94-25.25h6.31v25.25h-6.31v-25.25ZM76.21 133.97h6.31v6.31h6.31v6.31h-6.31v18.85h-6.31v-31.48Zm12.63 12.63h6.31v6.31h-6.31v-6.31Zm12.63-12.63h6.31v31.48h-6.31v-6.23h-6.31v-6.31h6.31v-18.94ZM114.2 133.97h31.56v6.31h-12.63v18.94h12.63v6.23H114.2v-6.23h12.63v-18.94H114.2v-6.31ZM152.19 133.97h31.56v6.31h-12.63v25.17h-6.31v-25.17h-12.63v-6.31ZM190.17 133.97h6.31v6.31h-6.31v-6.31Zm6.31 6.31h6.31v6.31h-6.31v-6.31Zm6.31 6.31h6.31v18.85h-6.31v-18.85Zm6.31-6.31h6.31v6.31h-6.31v-6.31Zm6.31-6.31h6.31v6.31h-6.31v-6.31Z" style="fill:#fff"/><path d="M34.01 138.18h6.31v25.25h-6.31v-25.25Zm6.31 25.25h18.94v6.23H40.32v-6.23Zm18.94-25.25h6.31v25.25h-6.31v-25.25ZM72 138.18h6.31v6.31h6.31v6.31h-6.31v18.85H72v-31.48Zm12.63 12.63h6.31v6.31h-6.31v-6.31Zm12.63-12.63h6.31v31.48h-6.31v-6.23h-6.31v-6.31h6.31v-18.94ZM109.99 138.18h31.56v6.31h-12.63v18.94h12.63v6.23h-31.56v-6.23h12.63v-18.94h-12.63v-6.31ZM147.97 138.18h31.56v6.31H166.9v25.17h-6.31v-25.17h-12.63v-6.31ZM185.96 138.18h6.31v6.31h-6.31v-6.31Zm6.31 6.31h6.31v6.31h-6.31v-6.31Zm6.31 6.31h6.31v18.85h-6.31V150.8Zm6.31-6.31h6.31v6.31h-6.31v-6.31Zm6.31-6.31h6.31v6.31h-6.31v-6.31Z" style="fill:#0067b4"/><path d="M42.44 129.75h6.31V155h-6.31v-25.25ZM48.75 155h18.94v6.23H48.75V155Zm18.94-25.25H74V155h-6.31v-25.25ZM80.43 129.75h6.31v6.31h6.31v6.31h-6.31v18.85h-6.31v-31.48Zm12.63 12.63h6.31v6.31h-6.31v-6.31Zm12.63-12.63H112v31.48h-6.31V155h-6.31v-6.31h6.31v-18.94ZM118.41 129.75h31.56v6.31h-12.63V155h12.63v6.23h-31.56V155h12.63v-18.94h-12.63v-6.31ZM156.4 129.75h31.56v6.31h-12.63v25.17h-6.31v-25.17h-12.63v-6.31ZM194.39 129.75h6.31v6.31h-6.31v-6.31Zm6.31 6.31h6.31v6.31h-6.31v-6.31Zm6.31 6.31h6.31v18.85h-6.31v-18.85Zm6.31-6.31h6.31v6.31h-6.31v-6.31Zm6.31-6.31h6.31v6.31h-6.31v-6.31Z" style="fill:#ed0677"/><path d="M38.23 133.97h6.31v25.25h-6.31v-25.25Zm6.31 25.25h18.94v6.23H44.54v-6.23Zm18.94-25.25h6.31v25.25h-6.31v-25.25ZM76.21 133.97h6.31v6.31h6.31v6.31h-6.31v18.85h-6.31v-31.48Zm12.63 12.63h6.31v6.31h-6.31v-6.31Zm12.63-12.63h6.31v31.48h-6.31v-6.23h-6.31v-6.31h6.31v-18.94ZM114.2 133.97h31.56v6.31h-12.63v18.94h12.63v6.23H114.2v-6.23h12.63v-18.94H114.2v-6.31ZM152.19 133.97h31.56v6.31h-12.63v25.17h-6.31v-25.17h-12.63v-6.31ZM190.17 133.97h6.31v6.31h-6.31v-6.31Zm6.31 6.31h6.31v6.31h-6.31v-6.31Zm6.31 6.31h6.31v18.85h-6.31v-18.85Zm6.31-6.31h6.31v6.31h-6.31v-6.31Zm6.31-6.31h6.31v6.31h-6.31v-6.31ZM38.23 193.87h25.25v6.31H44.54v6.31h18.94v6.31H44.54v12.54h-6.31v-31.48Zm25.25 6.31h6.31v6.31h-6.31v-6.31ZM76.21 193.87h31.56v6.31H82.52v6.31h18.94v6.31H82.52v6.31h25.25v6.23H76.21v-31.48ZM114.2 200.19h6.31v6.31h18.94v-6.31h6.31v25.17h-6.31v-12.54h-18.94v12.54h-6.31v-25.17Zm6.31-6.31h18.94v6.31h-18.94v-6.31ZM152.19 200.19h6.31v18.94h-6.31v-18.94Zm6.31-6.31h18.94v6.31H158.5v-6.31Zm0 25.25h18.94v6.23H158.5v-6.23Zm18.94-18.94h6.31v6.31h-6.31v-6.31Zm0 12.63h6.31v6.31h-6.31v-6.31ZM190.17 193.87h31.56v6.31h-25.25v6.31h18.94v6.31h-18.94v6.31h25.25v6.23h-31.56v-31.48Z" style="fill:#fff"/><path d="M34.01 198.09h25.25v6.31H40.32v6.31h18.94v6.31H40.32v12.54h-6.31v-31.48Zm25.25 6.31h6.31v6.31h-6.31v-6.31ZM72 198.09h31.56v6.31H78.31v6.31h18.94v6.31H78.31v6.31h25.25v6.23H72v-31.48ZM109.99 204.4h6.31v6.31h18.94v-6.31h6.31v25.17h-6.31v-12.54H116.3v12.54h-6.31V204.4Zm6.31-6.31h18.94v6.31H116.3v-6.31ZM147.97 204.4h6.31v18.94h-6.31V204.4Zm6.31-6.31h18.94v6.31h-18.94v-6.31Zm0 25.25h18.94v6.23h-18.94v-6.23Zm18.94-18.94h6.31v6.31h-6.31v-6.31Zm0 12.63h6.31v6.31h-6.31v-6.31ZM185.96 198.09h31.56v6.31h-25.25v6.31h18.94v6.31h-18.94v6.31h25.25v6.23h-31.56v-31.48Z" style="fill:#0067b4"/><path d="M42.44 189.66h25.25v6.31H48.75v6.31h18.94v6.31H48.75v12.54h-6.31v-31.48Zm25.25 6.31H74v6.31h-6.31v-6.31ZM80.43 189.66h31.56v6.31H86.74v6.31h18.94v6.31H86.74v6.31h25.25v6.23H80.43v-31.48ZM118.41 195.97h6.31v6.31h18.94v-6.31h6.31v25.17h-6.31V208.6h-18.94v12.54h-6.31v-25.17Zm6.31-6.31h18.94v6.31h-18.94v-6.31ZM156.4 195.97h6.31v18.94h-6.31v-18.94Zm6.31-6.31h18.94v6.31h-18.94v-6.31Zm0 25.25h18.94v6.23h-18.94v-6.23Zm18.94-18.94h6.31v6.31h-6.31v-6.31Zm0 12.63h6.31v6.31h-6.31v-6.31ZM194.39 189.66h31.56v6.31H200.7v6.31h18.94v6.31H200.7v6.31h25.25v6.23h-31.56v-31.48Z" style="fill:#ed0677"/><path d="M38.23 193.87h25.25v6.31H44.54v6.31h18.94v6.31H44.54v12.54h-6.31v-31.48Zm25.25 6.31h6.31v6.31h-6.31v-6.31ZM76.21 193.87h31.56v6.31H82.52v6.31h18.94v6.31H82.52v6.31h25.25v6.23H76.21v-31.48ZM114.2 200.19h6.31v6.31h18.94v-6.31h6.31v25.17h-6.31v-12.54h-18.94v12.54h-6.31v-25.17Zm6.31-6.31h18.94v6.31h-18.94v-6.31ZM152.19 200.19h6.31v18.94h-6.31v-18.94Zm6.31-6.31h18.94v6.31H158.5v-6.31Zm0 25.25h18.94v6.23H158.5v-6.23Zm18.94-18.94h6.31v6.31h-6.31v-6.31Zm0 12.63h6.31v6.31h-6.31v-6.31ZM190.17 193.87h31.56v6.31h-25.25v6.31h18.94v6.31h-18.94v6.31h25.25v6.23h-31.56v-31.48ZM38.23 253.78h31.56v6.31H44.54v6.31h18.94v6.31H44.54v12.54h-6.31v-31.48ZM76.21 260.09h6.31v18.94h-6.31v-18.94Zm6.31-6.31h18.94v6.31H82.52v-6.31Zm0 25.25h18.94v6.23H82.52v-6.23Zm18.94-18.94h6.31v18.94h-6.31v-18.94ZM114.2 260.09h6.31v18.94h-6.31v-18.94Zm6.31-6.31h18.94v6.31h-18.94v-6.31Zm0 25.25h18.94v6.23h-18.94v-6.23Zm18.94-18.94h6.31v6.31h-6.31v-6.31Zm0 12.63h6.31v6.31h-6.31v-6.31ZM152.19 253.78h6.31v25.25h-6.31v-25.25Zm6.31 25.25h18.94v6.23H158.5v-6.23Zm18.94-25.25h6.31v25.25h-6.31v-25.25ZM190.17 260.09h6.31v6.31h-6.31v-6.31Zm0 18.94h25.25v6.23h-25.25v-6.23Zm6.31-25.25h25.25v6.31h-25.25v-6.31Zm0 12.63h18.94v6.31h-18.94v-6.31Zm18.94 6.31h6.31v6.31h-6.31v-6.31Z" style="fill:#fff"/><path d="M34.01 258h31.56v6.31H40.32v6.31h18.94v6.31H40.32v12.54h-6.31v-31.48ZM72 264.31h6.31v18.94H72v-18.94Zm6.31-6.31h18.94v6.31H78.31V258Zm0 25.25h18.94v6.23H78.31v-6.23Zm18.94-18.94h6.31v18.94h-6.31v-18.94ZM109.99 264.31h6.31v18.94h-6.31v-18.94Zm6.31-6.31h18.94v6.31H116.3V258Zm0 25.25h18.94v6.23H116.3v-6.23Zm18.94-18.94h6.31v6.31h-6.31v-6.31Zm0 12.63h6.31v6.31h-6.31v-6.31ZM147.97 258h6.31v25.25h-6.31V258Zm6.31 25.25h18.94v6.23h-18.94v-6.23ZM173.22 258h6.31v25.25h-6.31V258ZM185.96 264.31h6.31v6.31h-6.31v-6.31Zm0 18.94h25.25v6.23h-25.25v-6.23Zm6.31-25.25h25.25v6.31h-25.25V258Zm0 12.63h18.94v6.31h-18.94v-6.31Zm18.94 6.31h6.31v6.31h-6.31v-6.31Z" style="fill:#0067b4"/><path d="M42.44 249.57H74v6.31H48.75v6.31h18.94v6.31H48.75v12.54h-6.31v-31.48ZM80.43 255.88h6.31v18.94h-6.31v-18.94Zm6.31-6.31h18.94v6.31H86.74v-6.31Zm0 25.25h18.94v6.23H86.74v-6.23Zm18.94-18.94h6.31v18.94h-6.31v-18.94ZM118.41 255.88h6.31v18.94h-6.31v-18.94Zm6.31-6.31h18.94v6.31h-18.94v-6.31Zm0 25.25h18.94v6.23h-18.94v-6.23Zm18.94-18.94h6.31v6.31h-6.31v-6.31Zm0 12.63h6.31v6.31h-6.31v-6.31ZM156.4 249.57h6.31v25.25h-6.31v-25.25Zm6.31 25.25h18.94v6.23h-18.94v-6.23Zm18.94-25.25h6.31v25.25h-6.31v-25.25ZM194.39 255.88h6.31v6.31h-6.31v-6.31Zm0 18.94h25.25v6.23h-25.25v-6.23Zm6.31-25.25h25.25v6.31H200.7v-6.31Zm0 12.63h18.94v6.31H200.7v-6.31Zm18.94 6.31h6.31v6.31h-6.31v-6.31Z" style="fill:#ed0677"/><path d="M38.23 253.78h31.56v6.31H44.54v6.31h18.94v6.31H44.54v12.54h-6.31v-31.48ZM76.21 260.09h6.31v18.94h-6.31v-18.94Zm6.31-6.31h18.94v6.31H82.52v-6.31Zm0 25.25h18.94v6.23H82.52v-6.23Zm18.94-18.94h6.31v18.94h-6.31v-18.94ZM114.2 260.09h6.31v18.94h-6.31v-18.94Zm6.31-6.31h18.94v6.31h-18.94v-6.31Zm0 25.25h18.94v6.23h-18.94v-6.23Zm18.94-18.94h6.31v6.31h-6.31v-6.31Zm0 12.63h6.31v6.31h-6.31v-6.31ZM152.19 253.78h6.31v25.25h-6.31v-25.25Zm6.31 25.25h18.94v6.23H158.5v-6.23Zm18.94-25.25h6.31v25.25h-6.31v-25.25ZM190.17 260.09h6.31v6.31h-6.31v-6.31Zm0 18.94h25.25v6.23h-25.25v-6.23Zm6.31-25.25h25.25v6.31h-25.25v-6.31Zm0 12.63h18.94v6.31h-18.94v-6.31Zm18.94 6.31h6.31v6.31h-6.31v-6.31ZM38.23 313.69h31.56V320H57.16v25.17h-6.31V320H38.22v-6.31ZM76.21 313.69h25.25V320H82.52v6.31h18.94v6.31H82.52v12.54h-6.31v-31.48Zm25.25 6.31h6.31v6.31h-6.31V320Zm0 12.63h6.31v12.54h-6.31v-12.54ZM114.2 313.69h6.31v25.25h-6.31v-25.25Zm6.31 25.25h18.94v6.23h-18.94v-6.23Zm18.94-25.25h6.31v25.25h-6.31v-25.25ZM152.19 320h6.31v6.31h-6.31V320Zm0 18.94h25.25v6.23h-25.25v-6.23Zm6.31-25.25h25.25V320H158.5v-6.31Zm0 12.63h18.94v6.31H158.5v-6.31Zm18.94 6.31h6.31v6.31h-6.31v-6.31ZM190.17 313.69h31.56V320H209.1v25.17h-6.31V320h-12.63v-6.31Z" style="fill:#fff"/><path d="M34.01 317.9h31.56v6.31H52.94v25.17h-6.31v-25.17H34v-6.31ZM72 317.9h25.25v6.31H78.31v6.31h18.94v6.31H78.31v12.54H72v-31.48Zm25.25 6.31h6.31v6.31h-6.31v-6.31Zm0 12.63h6.31v12.54h-6.31v-12.54ZM109.99 317.9h6.31v25.25h-6.31V317.9Zm6.31 25.25h18.94v6.23H116.3v-6.23Zm18.94-25.25h6.31v25.25h-6.31V317.9ZM147.97 324.22h6.31v6.31h-6.31v-6.31Zm0 18.94h25.25v6.23h-25.25v-6.23Zm6.31-25.25h25.25v6.31h-25.25v-6.31Zm0 12.63h18.94v6.31h-18.94v-6.31Zm18.94 6.31h6.31v6.31h-6.31v-6.31ZM185.96 317.9h31.56v6.31h-12.63v25.17h-6.31v-25.17h-12.63v-6.31Z" style="fill:#0067b4"/><path d="M42.44 309.48H74v6.31H61.37v25.17h-6.31v-25.17H42.43v-6.31ZM80.43 309.48h25.25v6.31H86.74v6.31h18.94v6.31H86.74v12.54h-6.31v-31.48Zm25.25 6.31h6.31v6.31h-6.31v-6.31Zm0 12.63h6.31v12.54h-6.31v-12.54ZM118.41 309.48h6.31v25.25h-6.31v-25.25Zm6.31 25.25h18.94v6.23h-18.94v-6.23Zm18.94-25.25h6.31v25.25h-6.31v-25.25ZM156.4 315.79h6.31v6.31h-6.31v-6.31Zm0 18.94h25.25v6.23H156.4v-6.23Zm6.31-25.25h25.25v6.31h-25.25v-6.31Zm0 12.63h18.94v6.31h-18.94v-6.31Zm18.94 6.31h6.31v6.31h-6.31v-6.31ZM194.39 309.48h31.56v6.31h-12.63v25.17h-6.31v-25.17h-12.63v-6.31Z" style="fill:#ed0677"/><path d="M38.23 313.69h31.56V320H57.16v25.17h-6.31V320H38.22v-6.31ZM76.21 313.69h25.25V320H82.52v6.31h18.94v6.31H82.52v12.54h-6.31v-31.48Zm25.25 6.31h6.31v6.31h-6.31V320Zm0 12.63h6.31v12.54h-6.31v-12.54ZM114.2 313.69h6.31v25.25h-6.31v-25.25Zm6.31 25.25h18.94v6.23h-18.94v-6.23Zm18.94-25.25h6.31v25.25h-6.31v-25.25ZM152.19 320h6.31v6.31h-6.31V320Zm0 18.94h25.25v6.23h-25.25v-6.23Zm6.31-25.25h25.25V320H158.5v-6.31Zm0 12.63h18.94v6.31H158.5v-6.31Zm18.94 6.31h6.31v6.31h-6.31v-6.31ZM190.17 313.69h31.56V320H209.1v25.17h-6.31V320h-12.63v-6.31ZM38.23 373.6h6.31v6.31h6.31v6.31h-6.31v18.85h-6.31v-31.48Zm12.63 12.63h6.31v6.31h-6.31v-6.31Zm12.63-12.63h6.31v31.48h-6.31v-18.85h-6.31v-6.31h6.31v-6.31ZM76.21 373.6h31.56v6.31H82.52v6.31h18.94v6.31H82.52v6.31h25.25v6.23H76.21v-31.48ZM114.2 373.6h25.25v6.31h-18.94v6.31h18.94v6.31h-18.94v12.54h-6.31v-31.48Zm25.25 6.31h6.31v6.31h-6.31v-6.31Zm0 12.63h6.31v12.54h-6.31v-12.54ZM152.19 379.91h6.31v18.94h-6.31v-18.94Zm6.31-6.31h18.94v6.31H158.5v-6.31Zm0 25.25h18.94v6.23H158.5v-6.23Zm18.94-18.94h6.31v6.31h-6.31v-6.31Zm0 12.63h6.31v6.31h-6.31v-6.31ZM190.17 373.6h6.31v6.31h-6.31v-6.31Zm6.31 6.31h6.31v6.31h-6.31v-6.31Zm6.31 6.31h6.31v18.85h-6.31v-18.85Zm6.31-6.31h6.31v6.31h-6.31v-6.31Zm6.31-6.31h6.31v6.31h-6.31v-6.31Z" style="fill:#fff"/><path d="M34.01 377.81h6.31v6.31h6.31v6.31h-6.31v18.85h-6.31V377.8Zm12.63 12.63h6.31v6.31h-6.31v-6.31Zm12.63-12.63h6.31v31.48h-6.31v-18.85h-6.31v-6.31h6.31v-6.31ZM72 377.81h31.56v6.31H78.31v6.31h18.94v6.31H78.31v6.31h25.25v6.23H72V377.8ZM109.99 377.81h25.25v6.31H116.3v6.31h18.94v6.31H116.3v12.54h-6.31V377.8Zm25.25 6.31h6.31v6.31h-6.31v-6.31Zm0 12.63h6.31v12.54h-6.31v-12.54ZM147.97 384.12h6.31v18.94h-6.31v-18.94Zm6.31-6.31h18.94v6.31h-18.94v-6.31Zm0 25.25h18.94v6.23h-18.94v-6.23Zm18.94-18.94h6.31v6.31h-6.31v-6.31Zm0 12.63h6.31v6.31h-6.31v-6.31ZM185.96 377.81h6.31v6.31h-6.31v-6.31Zm6.31 6.31h6.31v6.31h-6.31v-6.31Zm6.31 6.31h6.31v18.85h-6.31v-18.85Zm6.31-6.31h6.31v6.31h-6.31v-6.31Zm6.31-6.31h6.31v6.31h-6.31v-6.31Z" style="fill:#0067b4"/><path d="M42.44 369.38h6.31v6.31h6.31V382h-6.31v18.85h-6.31v-31.48Zm12.63 12.63h6.31v6.31h-6.31v-6.31Zm12.63-12.63h6.31v31.48H67.7v-18.85h-6.31v-6.31h6.31v-6.31ZM80.43 369.38h31.56v6.31H86.74V382h18.94v6.31H86.74v6.31h25.25v6.23H80.43v-31.48ZM118.41 369.38h25.25v6.31h-18.94V382h18.94v6.31h-18.94v12.54h-6.31v-31.48Zm25.25 6.31h6.31V382h-6.31v-6.31Zm0 12.63h6.31v12.54h-6.31v-12.54ZM156.4 375.7h6.31v18.94h-6.31V375.7Zm6.31-6.31h18.94v6.31h-18.94v-6.31Zm0 25.25h18.94v6.23h-18.94v-6.23Zm18.94-18.94h6.31v6.31h-6.31v-6.31Zm0 12.63h6.31v6.31h-6.31v-6.31ZM194.39 369.38h6.31v6.31h-6.31v-6.31Zm6.31 6.31h6.31V382h-6.31v-6.31Zm6.31 6.31h6.31v18.85h-6.31V382Zm6.31-6.31h6.31V382h-6.31v-6.31Zm6.31-6.31h6.31v6.31h-6.31v-6.31Z" style="fill:#ed0677"/><path d="M38.23 373.6h6.31v6.31h6.31v6.31h-6.31v18.85h-6.31v-31.48Zm12.63 12.63h6.31v6.31h-6.31v-6.31Zm12.63-12.63h6.31v31.48h-6.31v-18.85h-6.31v-6.31h6.31v-6.31ZM76.21 373.6h31.56v6.31H82.52v6.31h18.94v6.31H82.52v6.31h25.25v6.23H76.21v-31.48ZM114.2 373.6h25.25v6.31h-18.94v6.31h18.94v6.31h-18.94v12.54h-6.31v-31.48Zm25.25 6.31h6.31v6.31h-6.31v-6.31Zm0 12.63h6.31v12.54h-6.31v-12.54ZM152.19 379.91h6.31v18.94h-6.31v-18.94Zm6.31-6.31h18.94v6.31H158.5v-6.31Zm0 25.25h18.94v6.23H158.5v-6.23Zm18.94-18.94h6.31v6.31h-6.31v-6.31Zm0 12.63h6.31v6.31h-6.31v-6.31ZM190.17 373.6h6.31v6.31h-6.31v-6.31Zm6.31 6.31h6.31v6.31h-6.31v-6.31Zm6.31 6.31h6.31v18.85h-6.31v-18.85Zm6.31-6.31h6.31v6.31h-6.31v-6.31Zm6.31-6.31h6.31v6.31h-6.31v-6.31ZM38.23 439.82h6.31v6.31h-6.31v-6.31Zm0 18.94h25.25v6.23H38.23v-6.23Zm6.31-25.25h25.25v6.31H44.54v-6.31Zm0 12.63h18.94v6.31H44.54v-6.31Zm18.94 6.31h6.31v6.31h-6.31v-6.31ZM76.21 433.51h6.31v12.63h12.63v6.31H82.52v12.54h-6.31v-31.48Zm18.94 6.31h6.31v6.31h-6.31v-6.31Zm0 12.63h6.31v6.31h-6.31v-6.31Zm6.31-18.94h6.31v6.31h-6.31v-6.31Zm0 25.25h6.31v6.23h-6.31v-6.23ZM114.2 433.51h31.56v6.31h-12.63v18.94h12.63v6.23H114.2v-6.23h12.63v-18.94H114.2v-6.31ZM152.19 433.51h6.31v25.25h25.25v6.23h-31.56v-31.48ZM190.17 433.51h6.31v25.25h25.25v6.23h-31.56v-31.48Z" style="fill:#fff"/><path d="M34.01 444.03h6.31v6.31h-6.31v-6.31Zm0 18.94h25.25v6.23H34.01v-6.23Zm6.31-25.25h25.25v6.31H40.32v-6.31Zm0 12.63h18.94v6.31H40.32v-6.31Zm18.94 6.31h6.31v6.31h-6.31v-6.31ZM72 437.72h6.31v12.63h12.63v6.31H78.31v12.54H72v-31.48Zm18.94 6.31h6.31v6.31h-6.31v-6.31Zm0 12.63h6.31v6.31h-6.31v-6.31Zm6.31-18.94h6.31v6.31h-6.31v-6.31Zm0 25.25h6.31v6.23h-6.31v-6.23ZM109.99 437.72h31.56v6.31h-12.63v18.94h12.63v6.23h-31.56v-6.23h12.63v-18.94h-12.63v-6.31ZM147.97 437.72h6.31v25.25h25.25v6.23h-31.56v-31.48ZM185.96 437.72h6.31v25.25h25.25v6.23h-31.56v-31.48Z" style="fill:#0067b4"/><path d="M42.44 435.6h6.31v6.31h-6.31v-6.31Zm0 18.94h25.25v6.23H42.44v-6.23Zm6.31-25.25H74v6.31H48.75v-6.31Zm0 12.63h18.94v6.31H48.75v-6.31Zm18.94 6.31H74v6.31h-6.31v-6.31ZM80.43 429.29h6.31v12.63h12.63v6.31H86.74v12.54h-6.31v-31.48Zm18.94 6.31h6.31v6.31h-6.31v-6.31Zm0 12.63h6.31v6.31h-6.31v-6.31Zm6.31-18.94h6.31v6.31h-6.31v-6.31Zm0 25.25h6.31v6.23h-6.31v-6.23ZM118.41 429.29h31.56v6.31h-12.63v18.94h12.63v6.23h-31.56v-6.23h12.63V435.6h-12.63v-6.31ZM156.4 429.29h6.31v25.25h25.25v6.23H156.4v-31.48ZM194.39 429.29h6.31v25.25h25.25v6.23h-31.56v-31.48Z" style="fill:#ed0677"/><path d="M38.23 439.82h6.31v6.31h-6.31v-6.31Zm0 18.94h25.25v6.23H38.23v-6.23Zm6.31-25.25h25.25v6.31H44.54v-6.31Zm0 12.63h18.94v6.31H44.54v-6.31Zm18.94 6.31h6.31v6.31h-6.31v-6.31ZM76.21 433.51h6.31v12.63h12.63v6.31H82.52v12.54h-6.31v-31.48Zm18.94 6.31h6.31v6.31h-6.31v-6.31Zm0 12.63h6.31v6.31h-6.31v-6.31Zm6.31-18.94h6.31v6.31h-6.31v-6.31Zm0 25.25h6.31v6.23h-6.31v-6.23ZM114.2 433.51h31.56v6.31h-12.63v18.94h12.63v6.23H114.2v-6.23h12.63v-18.94H114.2v-6.31ZM152.19 433.51h6.31v25.25h25.25v6.23h-31.56v-31.48ZM190.17 433.51h6.31v25.25h25.25v6.23h-31.56v-31.48ZM57.22 493.41h6.31v25.25h25.25v6.23H57.22v-31.48ZM95.21 499.73h6.31v6.31h18.94v-6.31h6.31v25.17h-6.31v-12.54h-18.94v12.54h-6.31v-25.17Zm6.31-6.31h18.94v6.31h-18.94v-6.31ZM133.19 493.41h31.56v6.31h-6.31v6.31h-6.31v-6.31h-18.94v-6.31Zm6.31 18.94h6.31v6.31h18.94v6.23h-31.56v-6.23h6.31v-6.31Zm6.31-6.31h6.31v6.31h-6.31v-6.31ZM171.18 493.41h6.31v6.31h-6.31v-6.31Zm6.31 6.31h6.31v6.31h-6.31v-6.31Zm6.31 6.31h6.31v18.85h-6.31v-18.85Zm6.31-6.31h6.31v6.31h-6.31v-6.31Zm6.31-6.31h6.31v6.31h-6.31v-6.31Z" style="fill:#fff"/><path d="M53.01 497.63h6.31v25.25h25.25v6.23H53.01v-31.48ZM90.99 503.94h6.31v6.31h18.94v-6.31h6.31v25.17h-6.31v-12.54H97.3v12.54h-6.31v-25.17Zm6.31-6.31h18.94v6.31H97.3v-6.31ZM128.98 497.63h31.56v6.31h-6.31v6.31h-6.31v-6.31h-18.94v-6.31Zm6.31 18.94h6.31v6.31h18.94v6.23h-31.56v-6.23h6.31v-6.31Zm6.31-6.31h6.31v6.31h-6.31v-6.31ZM166.97 497.63h6.31v6.31h-6.31v-6.31Zm6.31 6.31h6.31v6.31h-6.31v-6.31Zm6.31 6.31h6.31v18.85h-6.31v-18.85Zm6.31-6.31h6.31v6.31h-6.31v-6.31Zm6.31-6.31h6.31v6.31h-6.31v-6.31Z" style="fill:#0067b4"/><path d="M61.43 489.2h6.31v25.25h25.25v6.23H61.43V489.2ZM99.42 495.51h6.31v6.31h18.94v-6.31h6.31v25.17h-6.31v-12.54h-18.94v12.54h-6.31v-25.17Zm6.31-6.31h18.94v6.31h-18.94v-6.31ZM137.41 489.2h31.56v6.31h-6.31v6.31h-6.31v-6.31h-18.94v-6.31Zm6.31 18.94h6.31v6.31h18.94v6.23h-31.56v-6.23h6.31v-6.31Zm6.31-6.31h6.31v6.31h-6.31v-6.31ZM175.39 489.2h6.31v6.31h-6.31v-6.31Zm6.31 6.31h6.31v6.31h-6.31v-6.31Zm6.31 6.31h6.31v18.85h-6.31v-18.85Zm6.31-6.31h6.31v6.31h-6.31v-6.31Zm6.31-6.31h6.31v6.31h-6.31v-6.31Z" style="fill:#ed0677"/><path d="M57.22 493.41h6.31v25.25h25.25v6.23H57.22v-31.48ZM95.21 499.73h6.31v6.31h18.94v-6.31h6.31v25.17h-6.31v-12.54h-18.94v12.54h-6.31v-25.17Zm6.31-6.31h18.94v6.31h-18.94v-6.31ZM133.19 493.41h31.56v6.31h-6.31v6.31h-6.31v-6.31h-18.94v-6.31Zm6.31 18.94h6.31v6.31h18.94v6.23h-31.56v-6.23h6.31v-6.31Zm6.31-6.31h6.31v6.31h-6.31v-6.31ZM171.18 493.41h6.31v6.31h-6.31v-6.31Zm6.31 6.31h6.31v6.31h-6.31v-6.31Zm6.31 6.31h6.31v18.85h-6.31v-18.85Zm6.31-6.31h6.31v6.31h-6.31v-6.31Zm6.31-6.31h6.31v6.31h-6.31v-6.31ZM57.22 553.32h6.31v25.25h25.25v6.23H57.22v-31.48ZM95.21 559.63h6.31v18.94h-6.31v-18.94Zm6.31-6.31h18.94v6.31h-18.94v-6.31Zm0 25.25h18.94v6.23h-18.94v-6.23Zm18.94-18.94h6.31v18.94h-6.31v-18.94ZM133.19 553.32h6.31v18.94h-6.31v-18.94Zm6.31 18.94h6.31v6.31h-6.31v-6.31Zm6.31 6.31h6.31v6.23h-6.31v-6.23Zm6.31-6.31h6.31v6.31h-6.31v-6.31Zm6.31-18.94h6.31v18.94h-6.31v-18.94ZM171.18 553.32h31.56v6.31h-25.25v6.31h18.94v6.31h-18.94v6.31h25.25v6.23h-31.56v-31.48Z" style="fill:#fff"/><path d="M53.01 557.54h6.31v25.25h25.25v6.23H53.01v-31.48ZM90.99 563.85h6.31v18.94h-6.31v-18.94Zm6.31-6.31h18.94v6.31H97.3v-6.31Zm0 25.25h18.94v6.23H97.3v-6.23Zm18.94-18.94h6.31v18.94h-6.31v-18.94ZM128.98 557.54h6.31v18.94h-6.31v-18.94Zm6.31 18.94h6.31v6.31h-6.31v-6.31Zm6.31 6.31h6.31v6.23h-6.31v-6.23Zm6.31-6.31h6.31v6.31h-6.31v-6.31Zm6.31-18.94h6.31v18.94h-6.31v-18.94ZM166.97 557.54h31.56v6.31h-25.25v6.31h18.94v6.31h-18.94v6.31h25.25v6.23h-31.56v-31.48Z" style="fill:#0067b4"/><path d="M61.43 549.11h6.31v25.25h25.25v6.23H61.43v-31.48ZM99.42 555.42h6.31v18.94h-6.31v-18.94Zm6.31-6.31h18.94v6.31h-18.94v-6.31Zm0 25.25h18.94v6.23h-18.94v-6.23Zm18.94-18.94h6.31v18.94h-6.31v-18.94ZM137.41 549.11h6.31v18.94h-6.31v-18.94Zm6.31 18.94h6.31v6.31h-6.31v-6.31Zm6.31 6.31h6.31v6.23h-6.31v-6.23Zm6.31-6.31h6.31v6.31h-6.31v-6.31Zm6.31-18.94h6.31v18.94h-6.31v-18.94ZM175.39 549.11h31.56v6.31H181.7v6.31h18.94v6.31H181.7v6.31h25.25v6.23h-31.56V549.1Z" style="fill:#ed0677"/><path d="M57.22 553.32h6.31v25.25h25.25v6.23H57.22v-31.48ZM95.21 559.63h6.31v18.94h-6.31v-18.94Zm6.31-6.31h18.94v6.31h-18.94v-6.31Zm0 25.25h18.94v6.23h-18.94v-6.23Zm18.94-18.94h6.31v18.94h-6.31v-18.94ZM133.19 553.32h6.31v18.94h-6.31v-18.94Zm6.31 18.94h6.31v6.31h-6.31v-6.31Zm6.31 6.31h6.31v6.23h-6.31v-6.23Zm6.31-6.31h6.31v6.31h-6.31v-6.31Zm6.31-18.94h6.31v18.94h-6.31v-18.94ZM171.18 553.32h31.56v6.31h-25.25v6.31h18.94v6.31h-18.94v6.31h25.25v6.23h-31.56v-31.48ZM19.23 619.54h6.31v6.31h-6.31v-6.31Zm0 18.94h25.25v6.23H19.23v-6.23Zm6.31-25.25h25.25v6.31H25.54v-6.31Zm0 12.63h18.94v6.31H25.54v-6.31Zm18.94 6.31h6.31v6.31h-6.31v-6.31ZM57.22 619.54h6.31v6.31h18.94v-6.31h6.31v25.17h-6.31v-12.54H63.53v12.54h-6.31v-25.17Zm6.31-6.31h18.94v6.31H63.53v-6.31ZM95.21 613.23h6.31v18.94h-6.31v-18.94Zm6.31 18.94h6.31v6.31h-6.31v-6.31Zm6.31 6.31h6.31v6.23h-6.31v-6.23Zm6.31-6.31h6.31v6.31h-6.31v-6.31Zm6.31-18.94h6.31v18.94h-6.31v-18.94ZM133.19 619.54h6.31v6.31h18.94v-6.31h6.31v25.17h-6.31v-12.54H139.5v12.54h-6.31v-25.17Zm6.31-6.31h18.94v6.31H139.5v-6.31ZM171.18 619.54h6.31v18.94h-6.31v-18.94Zm6.31-6.31h25.25v6.31h-25.25v-6.31Zm0 25.25h18.94v6.23h-18.94v-6.23Zm6.31-12.63h18.94v12.63h-6.31v-6.31H183.8v-6.31ZM209.17 613.23h31.56v6.31h-25.25v6.31h18.94v6.31h-18.94v6.31h25.25v6.23h-31.56v-31.48Z" style="fill:#fff"/><path d="M15.02 623.76h6.31v6.31h-6.31v-6.31Zm0 18.94h25.25v6.23H15.02v-6.23Zm6.31-25.25h25.25v6.31H21.33v-6.31Zm0 12.63h18.94v6.31H21.33v-6.31Zm18.94 6.31h6.31v6.31h-6.31v-6.31ZM53.01 623.76h6.31v6.31h18.94v-6.31h6.31v25.17h-6.31v-12.54H59.32v12.54h-6.31v-25.17Zm6.31-6.31h18.94v6.31H59.32v-6.31ZM90.99 617.44h6.31v18.94h-6.31v-18.94Zm6.31 18.94h6.31v6.31H97.3v-6.31Zm6.31 6.31h6.31v6.23h-6.31v-6.23Zm6.31-6.31h6.31v6.31h-6.31v-6.31Zm6.31-18.94h6.31v18.94h-6.31v-18.94ZM128.98 623.76h6.31v6.31h18.94v-6.31h6.31v25.17h-6.31v-12.54h-18.94v12.54h-6.31v-25.17Zm6.31-6.31h18.94v6.31h-18.94v-6.31ZM166.97 623.76h6.31v18.94h-6.31v-18.94Zm6.31-6.31h25.25v6.31h-25.25v-6.31Zm0 25.25h18.94v6.23h-18.94v-6.23Zm6.31-12.63h18.94v12.63h-6.31v-6.31h-12.63v-6.31ZM204.95 617.44h31.56v6.31h-25.25v6.31h18.94v6.31h-18.94v6.31h25.25v6.23h-31.56v-31.48Z" style="fill:#0067b4"/><path d="M23.45 615.33h6.31v6.31h-6.31v-6.31Zm0 18.94H48.7v6.23H23.45v-6.23Zm6.31-25.25h25.25v6.31H29.76v-6.31Zm0 12.63H48.7v6.31H29.76v-6.31Zm18.94 6.31h6.31v6.31H48.7v-6.31ZM61.43 615.33h6.31v6.31h18.94v-6.31h6.31v25.17h-6.31v-12.54H67.74v12.54h-6.31v-25.17Zm6.31-6.31h18.94v6.31H67.74v-6.31ZM99.42 609.02h6.31v18.94h-6.31v-18.94Zm6.31 18.94h6.31v6.31h-6.31v-6.31Zm6.31 6.31h6.31v6.23h-6.31v-6.23Zm6.31-6.31h6.31v6.31h-6.31v-6.31Zm6.31-18.94h6.31v18.94h-6.31v-18.94ZM137.41 615.33h6.31v6.31h18.94v-6.31h6.31v25.17h-6.31v-12.54h-18.94v12.54h-6.31v-25.17Zm6.31-6.31h18.94v6.31h-18.94v-6.31ZM175.4 615.33h6.31v18.94h-6.31v-18.94Zm6.31-6.31h25.25v6.31h-25.25v-6.31Zm0 25.25h18.94v6.23h-18.94v-6.23Zm6.31-12.63h18.94v12.63h-6.31v-6.31h-12.63v-6.31ZM213.38 609.02h31.56v6.31h-25.25v6.31h18.94v6.31h-18.94v6.31h25.25v6.23h-31.56v-31.48Z" style="fill:#ed0677"/><path d="M19.23 619.54h6.31v6.31h-6.31v-6.31Zm0 18.94h25.25v6.23H19.23v-6.23Zm6.31-25.25h25.25v6.31H25.54v-6.31Zm0 12.63h18.94v6.31H25.54v-6.31Zm18.94 6.31h6.31v6.31h-6.31v-6.31ZM57.22 619.54h6.31v6.31h18.94v-6.31h6.31v25.17h-6.31v-12.54H63.53v12.54h-6.31v-25.17Zm6.31-6.31h18.94v6.31H63.53v-6.31ZM95.21 613.23h6.31v18.94h-6.31v-18.94Zm6.31 18.94h6.31v6.31h-6.31v-6.31Zm6.31 6.31h6.31v6.23h-6.31v-6.23Zm6.31-6.31h6.31v6.31h-6.31v-6.31Zm6.31-18.94h6.31v18.94h-6.31v-18.94ZM133.19 619.54h6.31v6.31h18.94v-6.31h6.31v25.17h-6.31v-12.54H139.5v12.54h-6.31v-25.17Zm6.31-6.31h18.94v6.31H139.5v-6.31ZM171.18 619.54h6.31v18.94h-6.31v-18.94Zm6.31-6.31h25.25v6.31h-25.25v-6.31Zm0 25.25h18.94v6.23h-18.94v-6.23Zm6.31-12.63h18.94v12.63h-6.31v-6.31H183.8v-6.31ZM209.17 613.23h31.56v6.31h-25.25v6.31h18.94v6.31h-18.94v6.31h25.25v6.23h-31.56v-31.48ZM38.23 673.14h25.25v6.31H44.54v6.31h18.94v6.31H44.54v6.31h18.94v6.23H38.23v-31.48Zm25.25 6.31h6.31v6.31h-6.31v-6.31Zm0 12.63h6.31v6.31h-6.31v-6.31ZM76.21 673.14h25.25v6.31H82.52v6.31h18.94v6.31H82.52v12.54h-6.31v-31.48Zm25.25 6.31h6.31v6.31h-6.31v-6.31Zm0 12.63h6.31v12.54h-6.31v-12.54ZM114.2 679.45h6.31v6.31h18.94v-6.31h6.31v25.17h-6.31v-12.54h-18.94v12.54h-6.31v-25.17Zm6.31-6.31h18.94v6.31h-18.94v-6.31ZM152.19 673.14h6.31v18.94h-6.31v-18.94Zm6.31 18.94h6.31v6.31h-6.31v-6.31Zm6.31 6.31h6.31v6.23h-6.31v-6.23Zm6.31-6.31h6.31v6.31h-6.31v-6.31Zm6.31-18.94h6.31v18.94h-6.31v-18.94ZM190.17 673.14h31.56v6.31h-25.25v6.31h18.94v6.31h-18.94v6.31h25.25v6.23h-31.56v-31.48Z" style="fill:#fff"/><path d="M34.01 677.35h25.25v6.31H40.32v6.31h18.94v6.31H40.32v6.31h18.94v6.23H34.01v-31.48Zm25.25 6.31h6.31v6.31h-6.31v-6.31Zm0 12.63h6.31v6.31h-6.31v-6.31ZM72 677.35h25.25v6.31H78.31v6.31h18.94v6.31H78.31v12.54H72v-31.48Zm25.25 6.31h6.31v6.31h-6.31v-6.31Zm0 12.63h6.31v12.54h-6.31v-12.54ZM109.99 683.66h6.31v6.31h18.94v-6.31h6.31v25.17h-6.31v-12.54H116.3v12.54h-6.31v-25.17Zm6.31-6.31h18.94v6.31H116.3v-6.31ZM147.97 677.35h6.31v18.94h-6.31v-18.94Zm6.31 18.94h6.31v6.31h-6.31v-6.31Zm6.31 6.31h6.31v6.23h-6.31v-6.23Zm6.31-6.31h6.31v6.31h-6.31v-6.31Zm6.31-18.94h6.31v18.94h-6.31v-18.94ZM185.96 677.35h31.56v6.31h-25.25v6.31h18.94v6.31h-18.94v6.31h25.25v6.23h-31.56v-31.48Z" style="fill:#0067b4"/><path d="M42.44 668.92h25.25v6.31H48.75v6.31h18.94v6.31H48.75v6.31h18.94v6.23H42.44v-31.48Zm25.25 6.31H74v6.31h-6.31v-6.31Zm0 12.63H74v6.31h-6.31v-6.31ZM80.43 668.92h25.25v6.31H86.74v6.31h18.94v6.31H86.74v12.54h-6.31v-31.48Zm25.25 6.31h6.31v6.31h-6.31v-6.31Zm0 12.63h6.31v12.54h-6.31v-12.54ZM118.41 675.24h6.31v6.31h18.94v-6.31h6.31v25.17h-6.31v-12.54h-18.94v12.54h-6.31v-25.17Zm6.31-6.31h18.94v6.31h-18.94v-6.31ZM156.4 668.92h6.31v18.94h-6.31v-18.94Zm6.31 18.94h6.31v6.31h-6.31v-6.31Zm6.31 6.31h6.31v6.23h-6.31v-6.23Zm6.31-6.31h6.31v6.31h-6.31v-6.31Zm6.31-18.94h6.31v18.94h-6.31v-18.94ZM194.39 668.92h31.56v6.31H200.7v6.31h18.94v6.31H200.7v6.31h25.25v6.23h-31.56v-31.48Z" style="fill:#ed0677"/><path d="M38.23 673.14h25.25v6.31H44.54v6.31h18.94v6.31H44.54v6.31h18.94v6.23H38.23v-31.48Zm25.25 6.31h6.31v6.31h-6.31v-6.31Zm0 12.63h6.31v6.31h-6.31v-6.31ZM76.21 673.14h25.25v6.31H82.52v6.31h18.94v6.31H82.52v12.54h-6.31v-31.48Zm25.25 6.31h6.31v6.31h-6.31v-6.31Zm0 12.63h6.31v12.54h-6.31v-12.54ZM114.2 679.45h6.31v6.31h18.94v-6.31h6.31v25.17h-6.31v-12.54h-18.94v12.54h-6.31v-25.17Zm6.31-6.31h18.94v6.31h-18.94v-6.31ZM152.19 673.14h6.31v18.94h-6.31v-18.94Zm6.31 18.94h6.31v6.31h-6.31v-6.31Zm6.31 6.31h6.31v6.23h-6.31v-6.23Zm6.31-6.31h6.31v6.31h-6.31v-6.31Zm6.31-18.94h6.31v18.94h-6.31v-18.94ZM190.17 673.14h31.56v6.31h-25.25v6.31h18.94v6.31h-18.94v6.31h25.25v6.23h-31.56v-31.48ZM57.22 739.36h6.31v6.31h-6.31v-6.31Zm0 18.94h25.25v6.23H57.22v-6.23Zm6.31-25.25h25.25v6.31H63.53v-6.31Zm0 12.63h18.94v6.31H63.53v-6.31Zm18.94 6.31h6.31v6.31h-6.31v-6.31ZM95.21 733.04h31.56v6.31h-25.25v6.31h18.94v6.31h-18.94v6.31h25.25v6.23H95.21v-31.48ZM133.19 733.04h6.31v25.25h25.25v6.23h-31.56v-31.48ZM171.18 733.04h31.56v6.31h-25.25v6.31h18.94v6.31h-18.94v12.54h-6.31v-31.48Z" style="fill:#fff"/><path d="M53.01 743.57h6.31v6.31h-6.31v-6.31Zm0 18.94h25.25v6.23H53.01v-6.23Zm6.31-25.25h25.25v6.31H59.32v-6.31Zm0 12.63h18.94v6.31H59.32v-6.31Zm18.94 6.31h6.31v6.31h-6.31v-6.31ZM90.99 737.26h31.56v6.31H97.3v6.31h18.94v6.31H97.3v6.31h25.25v6.23H90.99v-31.48ZM128.98 737.26h6.31v25.25h25.25v6.23h-31.56v-31.48ZM166.97 737.26h31.56v6.31h-25.25v6.31h18.94v6.31h-18.94v12.54h-6.31v-31.48Z" style="fill:#0067b4"/><path d="M61.43 735.14h6.31v6.31h-6.31v-6.31Zm0 18.94h25.25v6.23H61.43v-6.23Zm6.31-25.25h25.25v6.31H67.74v-6.31Zm0 12.63h18.94v6.31H67.74v-6.31Zm18.94 6.31h6.31v6.31h-6.31v-6.31ZM99.42 728.83h31.56v6.31h-25.25v6.31h18.94v6.31h-18.94v6.31h25.25v6.23H99.42v-31.48ZM137.41 728.83h6.31v25.25h25.25v6.23h-31.56v-31.48ZM175.39 728.83h31.56v6.31H181.7v6.31h18.94v6.31H181.7v12.54h-6.31v-31.48Z" style="fill:#ed0677"/><path d="M57.22 739.36h6.31v6.31h-6.31v-6.31Zm0 18.94h25.25v6.23H57.22v-6.23Zm6.31-25.25h25.25v6.31H63.53v-6.31Zm0 12.63h18.94v6.31H63.53v-6.31Zm18.94 6.31h6.31v6.31h-6.31v-6.31ZM95.21 733.04h31.56v6.31h-25.25v6.31h18.94v6.31h-18.94v6.31h25.25v6.23H95.21v-31.48ZM133.19 733.04h6.31v25.25h25.25v6.23h-31.56v-31.48ZM171.18 733.04h31.56v6.31h-25.25v6.31h18.94v6.31h-18.94v12.54h-6.31v-31.48ZM38.23 792.95h6.31v18.94h-6.31v-18.94Zm6.31 18.94h6.31v6.31h-6.31v-6.31Zm6.31 6.31h6.31v6.23h-6.31v-6.23Zm6.31-6.31h6.31v6.31h-6.31v-6.31Zm6.31-18.94h6.31v18.94h-6.31v-18.94ZM76.21 799.26h6.31v6.31h18.94v-6.31h6.31v25.17h-6.31v-12.54H82.52v12.54h-6.31v-25.17Zm6.31-6.31h18.94v6.31H82.52v-6.31ZM114.2 792.95h6.31v25.25h25.25v6.23H114.2v-31.48ZM152.19 792.95h6.31v25.25h-6.31v-25.25Zm6.31 25.25h18.94v6.23H158.5v-6.23Zm18.94-25.25h6.31v25.25h-6.31v-25.25ZM190.17 792.95h31.56v6.31h-25.25v6.31h18.94v6.31h-18.94v6.31h25.25v6.23h-31.56v-31.48Z" style="fill:#fff"/><path d="M34.01 797.17h6.31v18.94h-6.31v-18.94Zm6.31 18.94h6.31v6.31h-6.31v-6.31Zm6.31 6.31h6.31v6.23h-6.31v-6.23Zm6.31-6.31h6.31v6.31h-6.31v-6.31Zm6.31-18.94h6.31v18.94h-6.31v-18.94ZM72 803.48h6.31v6.31h18.94v-6.31h6.31v25.17h-6.31v-12.54H78.31v12.54H72v-25.17Zm6.31-6.31h18.94v6.31H78.31v-6.31ZM109.99 797.17h6.31v25.25h25.25v6.23h-31.56v-31.48ZM147.97 797.17h6.31v25.25h-6.31v-25.25Zm6.31 25.25h18.94v6.23h-18.94v-6.23Zm18.94-25.25h6.31v25.25h-6.31v-25.25ZM185.96 797.17h31.56v6.31h-25.25v6.31h18.94v6.31h-18.94v6.31h25.25v6.23h-31.56v-31.48Z" style="fill:#0067b4"/><path d="M42.44 788.74h6.31v18.94h-6.31v-18.94Zm6.31 18.94h6.31v6.31h-6.31v-6.31Zm6.31 6.31h6.31v6.23h-6.31v-6.23Zm6.31-6.31h6.31v6.31h-6.31v-6.31Zm6.31-18.94h6.31v18.94h-6.31v-18.94ZM80.43 795.05h6.31v6.31h18.94v-6.31h6.31v25.17h-6.31v-12.54H86.74v12.54h-6.31v-25.17Zm6.31-6.31h18.94v6.31H86.74v-6.31ZM118.41 788.74h6.31v25.25h25.25v6.23h-31.56v-31.48ZM156.4 788.74h6.31v25.25h-6.31v-25.25Zm6.31 25.25h18.94v6.23h-18.94v-6.23Zm18.94-25.25h6.31v25.25h-6.31v-25.25ZM194.39 788.74h31.56v6.31H200.7v6.31h18.94v6.31H200.7v6.31h25.25v6.23h-31.56v-31.48Z" style="fill:#ed0677"/><path d="M38.23 792.95h6.31v18.94h-6.31v-18.94Zm6.31 18.94h6.31v6.31h-6.31v-6.31Zm6.31 6.31h6.31v6.23h-6.31v-6.23Zm6.31-6.31h6.31v6.31h-6.31v-6.31Zm6.31-18.94h6.31v18.94h-6.31v-18.94ZM76.21 799.26h6.31v6.31h18.94v-6.31h6.31v25.17h-6.31v-12.54H82.52v12.54h-6.31v-25.17Zm6.31-6.31h18.94v6.31H82.52v-6.31ZM114.2 792.95h6.31v25.25h25.25v6.23H114.2v-31.48ZM152.19 792.95h6.31v25.25h-6.31v-25.25Zm6.31 25.25h18.94v6.23H158.5v-6.23Zm18.94-25.25h6.31v25.25h-6.31v-25.25ZM190.17 792.95h31.56v6.31h-25.25v6.31h18.94v6.31h-18.94v6.31h25.25v6.23h-31.56v-31.48ZM38.23 859.17h6.31v6.31h-6.31v-6.31Zm0 18.94h25.25v6.23H38.23v-6.23Zm6.31-25.25h25.25v6.31H44.54v-6.31Zm0 12.63h18.94v6.31H44.54v-6.31Zm18.94 6.31h6.31v6.31h-6.31v-6.31ZM76.21 852.86h31.56v6.31H82.52v6.31h18.94v6.31H82.52v6.31h25.25v6.23H76.21v-31.48ZM114.2 852.86h6.31v6.31h6.31v6.31h-6.31v18.85h-6.31v-31.48Zm12.63 12.63h6.31v6.31h-6.31v-6.31Zm12.63-12.63h6.31v31.48h-6.31v-6.23h-6.31v-6.31h6.31v-18.94ZM152.19 859.17h6.31v6.31h-6.31v-6.31Zm0 18.94h25.25v6.23h-25.25v-6.23Zm6.31-25.25h25.25v6.31H158.5v-6.31Zm0 12.63h18.94v6.31H158.5v-6.31Zm18.94 6.31h6.31v6.31h-6.31v-6.31ZM190.17 852.86h31.56v6.31h-25.25v6.31h18.94v6.31h-18.94v6.31h25.25v6.23h-31.56v-31.48Z" style="fill:#fff"/><path d="M34.01 863.39h6.31v6.31h-6.31v-6.31Zm0 18.94h25.25v6.23H34.01v-6.23Zm6.31-25.25h25.25v6.31H40.32v-6.31Zm0 12.63h18.94v6.31H40.32v-6.31Zm18.94 6.31h6.31v6.31h-6.31v-6.31ZM72 857.07h31.56v6.31H78.31v6.31h18.94V876H78.31v6.31h25.25v6.23H72v-31.48ZM109.99 857.07h6.31v6.31h6.31v6.31h-6.31v18.85h-6.31v-31.48Zm12.63 12.63h6.31v6.31h-6.31v-6.31Zm12.63-12.63h6.31v31.48h-6.31v-6.23h-6.31v-6.31h6.31v-18.94ZM147.97 863.39h6.31v6.31h-6.31v-6.31Zm0 18.94h25.25v6.23h-25.25v-6.23Zm6.31-25.25h25.25v6.31h-25.25v-6.31Zm0 12.63h18.94v6.31h-18.94v-6.31Zm18.94 6.31h6.31v6.31h-6.31v-6.31ZM185.96 857.07h31.56v6.31h-25.25v6.31h18.94V876h-18.94v6.31h25.25v6.23h-31.56v-31.48Z" style="fill:#0067b4"/><path d="M42.44 854.96h6.31v6.31h-6.31v-6.31Zm0 18.94h25.25v6.23H42.44v-6.23Zm6.31-25.25H74v6.31H48.75v-6.31Zm0 12.63h18.94v6.31H48.75v-6.31Zm18.94 6.31H74v6.31h-6.31v-6.31ZM80.43 848.65h31.56v6.31H86.74v6.31h18.94v6.31H86.74v6.31h25.25v6.23H80.43v-31.48ZM118.41 848.65h6.31v6.31h6.31v6.31h-6.31v18.85h-6.31v-31.48Zm12.63 12.63h6.31v6.31h-6.31v-6.31Zm12.63-12.63h6.31v31.48h-6.31v-6.23h-6.31v-6.31h6.31v-18.94ZM156.4 854.96h6.31v6.31h-6.31v-6.31Zm0 18.94h25.25v6.23H156.4v-6.23Zm6.31-25.25h25.25v6.31h-25.25v-6.31Zm0 12.63h18.94v6.31h-18.94v-6.31Zm18.94 6.31h6.31v6.31h-6.31v-6.31ZM194.39 848.65h31.56v6.31H200.7v6.31h18.94v6.31H200.7v6.31h25.25v6.23h-31.56v-31.48Z" style="fill:#ed0677"/><path d="M38.23 859.17h6.31v6.31h-6.31v-6.31Zm0 18.94h25.25v6.23H38.23v-6.23Zm6.31-25.25h25.25v6.31H44.54v-6.31Zm0 12.63h18.94v6.31H44.54v-6.31Zm18.94 6.31h6.31v6.31h-6.31v-6.31ZM76.21 852.86h31.56v6.31H82.52v6.31h18.94v6.31H82.52v6.31h25.25v6.23H76.21v-31.48ZM114.2 852.86h6.31v6.31h6.31v6.31h-6.31v18.85h-6.31v-31.48Zm12.63 12.63h6.31v6.31h-6.31v-6.31Zm12.63-12.63h6.31v31.48h-6.31v-6.23h-6.31v-6.31h6.31v-18.94ZM152.19 859.17h6.31v6.31h-6.31v-6.31Zm0 18.94h25.25v6.23h-25.25v-6.23Zm6.31-25.25h25.25v6.31H158.5v-6.31Zm0 12.63h18.94v6.31H158.5v-6.31Zm18.94 6.31h6.31v6.31h-6.31v-6.31ZM190.17 852.86h31.56v6.31h-25.25v6.31h18.94v6.31h-18.94v6.31h25.25v6.23h-31.56v-31.48ZM38.23 912.77h6.31v12.63h18.94v-12.63h6.31v31.48h-6.31v-12.54H44.54v12.54h-6.31v-31.48ZM76.21 912.77h6.31v25.25h-6.31v-25.25Zm6.31 25.25h18.94v6.23H82.52v-6.23Zm18.94-25.25h6.31v25.25h-6.31v-25.25ZM114.2 912.77h6.31v6.31h6.31v6.31h-6.31v18.85h-6.31v-31.48Zm12.63 12.63h6.31v6.31h-6.31v-6.31Zm12.63-12.63h6.31v31.48h-6.31V925.4h-6.31v-6.31h6.31v-6.31ZM152.19 919.08h6.31v6.31h18.94v-6.31h6.31v25.17h-6.31v-12.54H158.5v12.54h-6.31v-25.17Zm6.31-6.31h18.94v6.31H158.5v-6.31ZM190.17 912.77h6.31v6.31h6.31v6.31h-6.31v18.85h-6.31v-31.48Zm12.63 12.63h6.31v6.31h-6.31v-6.31Zm12.63-12.63h6.31v31.48h-6.31v-6.23h-6.31v-6.31h6.31v-18.94Z" style="fill:#fff"/><path d="M34.01 916.98h6.31v12.63h18.94v-12.63h6.31v31.48h-6.31v-12.54H40.32v12.54h-6.31v-31.48ZM72 916.98h6.31v25.25H72v-25.25Zm6.31 25.25h18.94v6.23H78.31v-6.23Zm18.94-25.25h6.31v25.25h-6.31v-25.25ZM109.99 916.98h6.31v6.31h6.31v6.31h-6.31v18.85h-6.31v-31.48Zm12.63 12.63h6.31v6.31h-6.31v-6.31Zm12.63-12.63h6.31v31.48h-6.31v-18.85h-6.31v-6.31h6.31v-6.31ZM147.97 923.3h6.31v6.31h18.94v-6.31h6.31v25.17h-6.31v-12.54h-18.94v12.54h-6.31V923.3Zm6.31-6.31h18.94v6.31h-18.94v-6.31ZM185.96 916.98h6.31v6.31h6.31v6.31h-6.31v18.85h-6.31v-31.48Zm12.63 12.63h6.31v6.31h-6.31v-6.31Zm12.63-12.63h6.31v31.48h-6.31v-6.23h-6.31v-6.31h6.31v-18.94Z" style="fill:#0067b4"/><path d="M42.44 908.55h6.31v12.63h18.94v-12.63H74v31.48h-6.31v-12.54H48.75v12.54h-6.31v-31.48ZM80.43 908.55h6.31v25.25h-6.31v-25.25Zm6.31 25.25h18.94v6.23H86.74v-6.23Zm18.94-25.25h6.31v25.25h-6.31v-25.25ZM118.41 908.55h6.31v6.31h6.31v6.31h-6.31v18.85h-6.31v-31.48Zm12.63 12.63h6.31v6.31h-6.31v-6.31Zm12.63-12.63h6.31v31.48h-6.31v-18.85h-6.31v-6.31h6.31v-6.31ZM156.4 914.87h6.31v6.31h18.94v-6.31h6.31v25.17h-6.31V927.5h-18.94v12.54h-6.31v-25.17Zm6.31-6.31h18.94v6.31h-18.94v-6.31ZM194.39 908.55h6.31v6.31h6.31v6.31h-6.31v18.85h-6.31v-31.48Zm12.63 12.63h6.31v6.31h-6.31v-6.31Zm12.63-12.63h6.31v31.48h-6.31v-6.23h-6.31v-6.31h6.31v-18.94Z" style="fill:#ed0677"/><path d="M38.23 912.77h6.31v12.63h18.94v-12.63h6.31v31.48h-6.31v-12.54H44.54v12.54h-6.31v-31.48ZM76.21 912.77h6.31v25.25h-6.31v-25.25Zm6.31 25.25h18.94v6.23H82.52v-6.23Zm18.94-25.25h6.31v25.25h-6.31v-25.25ZM114.2 912.77h6.31v6.31h6.31v6.31h-6.31v18.85h-6.31v-31.48Zm12.63 12.63h6.31v6.31h-6.31v-6.31Zm12.63-12.63h6.31v31.48h-6.31V925.4h-6.31v-6.31h6.31v-6.31ZM152.19 919.08h6.31v6.31h18.94v-6.31h6.31v25.17h-6.31v-12.54H158.5v12.54h-6.31v-25.17Zm6.31-6.31h18.94v6.31H158.5v-6.31ZM190.17 912.77h6.31v6.31h6.31v6.31h-6.31v18.85h-6.31v-31.48Zm12.63 12.63h6.31v6.31h-6.31v-6.31Zm12.63-12.63h6.31v31.48h-6.31v-6.23h-6.31v-6.31h6.31v-18.94ZM19.23 978.99h6.31v18.94h-6.31v-18.94Zm6.31-6.31h18.94v6.31H25.54v-6.31Zm0 25.25h18.94v6.23H25.54v-6.23Zm18.94-18.94h6.31v6.31h-6.31v-6.31Zm0 12.63h6.31v6.31h-6.31v-6.31ZM57.22 972.68h25.25v6.31H63.53v6.31h18.94v6.31H63.53v12.54h-6.31v-31.48Zm25.25 6.31h6.31v6.31h-6.31v-6.31Zm0 12.63h6.31v12.54h-6.31v-12.54ZM95.21 972.68h31.56v6.31h-25.25v6.31h18.94v6.31h-18.94v6.31h25.25v6.23H95.21v-31.48ZM133.19 978.99h6.31v6.31h18.94v-6.31h6.31v25.17h-6.31v-12.54H139.5v12.54h-6.31v-25.17Zm6.31-6.31h18.94v6.31H139.5v-6.31ZM171.18 972.68h31.56v6.31h-12.63v25.17h-6.31v-25.17h-12.63v-6.31ZM209.17 972.68h31.56v6.31h-25.25v6.31h18.94v6.31h-18.94v6.31h25.25v6.23h-31.56v-31.48Z" style="fill:#fff"/><path d="M15.02 983.2h6.31v18.94h-6.31V983.2Zm6.31-6.31h18.94v6.31H21.33v-6.31Zm0 25.25h18.94v6.23H21.33v-6.23Zm18.94-18.94h6.31v6.31h-6.31v-6.31Zm0 12.63h6.31v6.31h-6.31v-6.31ZM53.01 976.89h25.25v6.31H59.32v6.31h18.94v6.31H59.32v12.54h-6.31v-31.48Zm25.25 6.31h6.31v6.31h-6.31v-6.31Zm0 12.63h6.31v12.54h-6.31v-12.54ZM90.99 976.89h31.56v6.31H97.3v6.31h18.94v6.31H97.3v6.31h25.25v6.23H90.99v-31.48ZM128.98 983.2h6.31v6.31h18.94v-6.31h6.31v25.17h-6.31v-12.54h-18.94v12.54h-6.31V983.2Zm6.31-6.31h18.94v6.31h-18.94v-6.31ZM166.97 976.89h31.56v6.31H185.9v25.17h-6.31V983.2h-12.63v-6.31ZM204.95 976.89h31.56v6.31h-25.25v6.31h18.94v6.31h-18.94v6.31h25.25v6.23h-31.56v-31.48Z" style="fill:#0067b4"/><path d="M23.45 974.77h6.31v18.94h-6.31v-18.94Zm6.31-6.31H48.7v6.31H29.76v-6.31Zm0 25.25H48.7v6.23H29.76v-6.23Zm18.94-18.94h6.31v6.31H48.7v-6.31Zm0 12.63h6.31v6.31H48.7v-6.31ZM61.43 968.46h25.25v6.31H67.74v6.31h18.94v6.31H67.74v12.54h-6.31v-31.48Zm25.25 6.31h6.31v6.31h-6.31v-6.31Zm0 12.63h6.31v12.54h-6.31V987.4ZM99.42 968.46h31.56v6.31h-25.25v6.31h18.94v6.31h-18.94v6.31h25.25v6.23H99.42v-31.48ZM137.41 974.77h6.31v6.31h18.94v-6.31h6.31v25.17h-6.31V987.4h-18.94v12.54h-6.31v-25.17Zm6.31-6.31h18.94v6.31h-18.94v-6.31ZM175.4 968.46h31.56v6.31h-12.63v25.17h-6.31v-25.17h-12.63v-6.31ZM213.38 968.46h31.56v6.31h-25.25v6.31h18.94v6.31h-18.94v6.31h25.25v6.23h-31.56v-31.48Z" style="fill:#ed0677"/><path d="M19.23 978.99h6.31v18.94h-6.31v-18.94Zm6.31-6.31h18.94v6.31H25.54v-6.31Zm0 25.25h18.94v6.23H25.54v-6.23Zm18.94-18.94h6.31v6.31h-6.31v-6.31Zm0 12.63h6.31v6.31h-6.31v-6.31ZM57.22 972.68h25.25v6.31H63.53v6.31h18.94v6.31H63.53v12.54h-6.31v-31.48Zm25.25 6.31h6.31v6.31h-6.31v-6.31Zm0 12.63h6.31v12.54h-6.31v-12.54ZM95.21 972.68h31.56v6.31h-25.25v6.31h18.94v6.31h-18.94v6.31h25.25v6.23H95.21v-31.48ZM133.19 978.99h6.31v6.31h18.94v-6.31h6.31v25.17h-6.31v-12.54H139.5v12.54h-6.31v-25.17Zm6.31-6.31h18.94v6.31H139.5v-6.31ZM171.18 972.68h31.56v6.31h-12.63v25.17h-6.31v-25.17h-12.63v-6.31ZM209.17 972.68h31.56v6.31h-25.25v6.31h18.94v6.31h-18.94v6.31h25.25v6.23h-31.56v-31.48ZM19.23 1038.9h6.31v6.31h-6.31v-6.31Zm0 18.94h25.25v6.23H19.23v-6.23Zm6.31-25.25h25.25v6.31H25.54v-6.31Zm0 12.63h18.94v6.31H25.54v-6.31Zm18.94 6.31h6.31v6.31h-6.31v-6.31ZM57.22 1032.58h25.25v6.31H63.53v6.31h18.94v6.31H63.53v12.54h-6.31v-31.48Zm25.25 6.31h6.31v6.31h-6.31v-6.31ZM95.21 1032.58h31.56v6.31h-12.63v18.94h12.63v6.23H95.21v-6.23h12.63v-18.94H95.21v-6.31ZM133.19 1032.58h25.25v6.31H139.5v6.31h18.94v6.31H139.5v12.54h-6.31v-31.48Zm25.25 6.31h6.31v6.31h-6.31v-6.31Zm0 12.63h6.31v12.54h-6.31v-12.54ZM171.18 1032.58h31.56v6.31h-12.63v18.94h12.63v6.23h-31.56v-6.23h12.63v-18.94h-12.63v-6.31ZM209.17 1032.58h31.56v6.31H228.1v25.17h-6.31v-25.17h-12.63v-6.31Z" style="fill:#fff"/><path d="M15.02 1043.11h6.31v6.31h-6.31v-6.31Zm0 18.94h25.25v6.23H15.02v-6.23Zm6.31-25.25h25.25v6.31H21.33v-6.31Zm0 12.63h18.94v6.31H21.33v-6.31Zm18.94 6.31h6.31v6.31h-6.31v-6.31ZM53.01 1036.8h25.25v6.31H59.32v6.31h18.94v6.31H59.32v12.54h-6.31v-31.48Zm25.25 6.31h6.31v6.31h-6.31v-6.31ZM90.99 1036.8h31.56v6.31h-12.63v18.94h12.63v6.23H90.99v-6.23h12.63v-18.94H90.99v-6.31ZM128.98 1036.8h25.25v6.31h-18.94v6.31h18.94v6.31h-18.94v12.54h-6.31v-31.48Zm25.25 6.31h6.31v6.31h-6.31v-6.31Zm0 12.63h6.31v12.54h-6.31v-12.54ZM166.97 1036.8h31.56v6.31H185.9v18.94h12.63v6.23h-31.56v-6.23h12.63v-18.94h-12.63v-6.31ZM204.95 1036.8h31.56v6.31h-12.63v25.17h-6.31v-25.17h-12.63v-6.31Z" style="fill:#0067b4"/><path d="M23.45 1034.68h6.31v6.31h-6.31v-6.31Zm0 18.94H48.7v6.23H23.45v-6.23Zm6.31-25.25h25.25v6.31H29.76v-6.31Zm0 12.63H48.7v6.31H29.76V1041Zm18.94 6.31h6.31v6.31H48.7v-6.31ZM61.43 1028.37h25.25v6.31H67.74v6.31h18.94v6.31H67.74v12.54h-6.31v-31.48Zm25.25 6.31h6.31v6.31h-6.31v-6.31ZM99.42 1028.37h31.56v6.31h-12.63v18.94h12.63v6.23H99.42v-6.23h12.63v-18.94H99.42v-6.31ZM137.41 1028.37h25.25v6.31h-18.94v6.31h18.94v6.31h-18.94v12.54h-6.31v-31.48Zm25.25 6.31h6.31v6.31h-6.31v-6.31Zm0 12.63h6.31v12.54h-6.31v-12.54ZM175.4 1028.37h31.56v6.31h-12.63v18.94h12.63v6.23H175.4v-6.23h12.63v-18.94H175.4v-6.31ZM213.38 1028.37h31.56v6.31h-12.63v25.17H226v-25.17h-12.63v-6.31Z" style="fill:#ed0677"/><path d="M19.23 1038.9h6.31v6.31h-6.31v-6.31Zm0 18.94h25.25v6.23H19.23v-6.23Zm6.31-25.25h25.25v6.31H25.54v-6.31Zm0 12.63h18.94v6.31H25.54v-6.31Zm18.94 6.31h6.31v6.31h-6.31v-6.31ZM57.22 1032.58h25.25v6.31H63.53v6.31h18.94v6.31H63.53v12.54h-6.31v-31.48Zm25.25 6.31h6.31v6.31h-6.31v-6.31ZM95.21 1032.58h31.56v6.31h-12.63v18.94h12.63v6.23H95.21v-6.23h12.63v-18.94H95.21v-6.31ZM133.19 1032.58h25.25v6.31H139.5v6.31h18.94v6.31H139.5v12.54h-6.31v-31.48Zm25.25 6.31h6.31v6.31h-6.31v-6.31Zm0 12.63h6.31v12.54h-6.31v-12.54ZM171.18 1032.58h31.56v6.31h-12.63v18.94h12.63v6.23h-31.56v-6.23h12.63v-18.94h-12.63v-6.31ZM209.17 1032.58h31.56v6.31H228.1v25.17h-6.31v-25.17h-12.63v-6.31ZM19.23 1092.49h31.56v6.31H38.16v25.17h-6.31v-25.17H19.22v-6.31ZM57.22 1092.49h25.25v6.31H63.53v6.31h18.94v6.31H63.53v12.54h-6.31v-31.48Zm25.25 6.31h6.31v6.31h-6.31v-6.31Zm0 12.63h6.31v12.54h-6.31v-12.54ZM95.21 1098.8h6.31v6.31h18.94v-6.31h6.31v25.17h-6.31v-12.54h-18.94v12.54h-6.31v-25.17Zm6.31-6.31h18.94v6.31h-18.94v-6.31ZM133.19 1092.49h6.31v18.94h-6.31v-18.94Zm6.31 18.94h6.31v6.31h-6.31v-6.31Zm6.31 6.31h6.31v6.23h-6.31v-6.23Zm6.31-6.31h6.31v6.31h-6.31v-6.31Zm6.31-18.94h6.31v18.94h-6.31v-18.94ZM171.18 1092.49h31.56v6.31h-25.25v6.31h18.94v6.31h-18.94v6.31h25.25v6.23h-31.56v-31.48ZM209.17 1092.49h6.31v25.25h25.25v6.23h-31.56v-31.48Z" style="fill:#fff"/><path d="M15.02 1096.71h31.56v6.31H33.95v25.17h-6.31v-25.17H15.01v-6.31ZM53.01 1096.71h25.25v6.31H59.32v6.31h18.94v6.31H59.32v12.54h-6.31v-31.48Zm25.25 6.31h6.31v6.31h-6.31v-6.31Zm0 12.63h6.31v12.54h-6.31v-12.54ZM90.99 1103.02h6.31v6.31h18.94v-6.31h6.31v25.17h-6.31v-12.54H97.3v12.54h-6.31v-25.17Zm6.31-6.31h18.94v6.31H97.3v-6.31ZM128.98 1096.71h6.31v18.94h-6.31v-18.94Zm6.31 18.94h6.31v6.31h-6.31v-6.31Zm6.31 6.31h6.31v6.23h-6.31v-6.23Zm6.31-6.31h6.31v6.31h-6.31v-6.31Zm6.31-18.94h6.31v18.94h-6.31v-18.94ZM166.97 1096.71h31.56v6.31h-25.25v6.31h18.94v6.31h-18.94v6.31h25.25v6.23h-31.56v-31.48ZM204.95 1096.71h6.31v25.25h25.25v6.23h-31.56v-31.48Z" style="fill:#0067b4"/><path d="M23.45 1088.28h31.56v6.31H42.38v25.17h-6.31v-25.17H23.44v-6.31ZM61.43 1088.28h25.25v6.31H67.74v6.31h18.94v6.31H67.74v12.54h-6.31v-31.48Zm25.25 6.31h6.31v6.31h-6.31v-6.31Zm0 12.63h6.31v12.54h-6.31v-12.54ZM99.42 1094.59h6.31v6.31h18.94v-6.31h6.31v25.17h-6.31v-12.54h-18.94v12.54h-6.31v-25.17Zm6.31-6.31h18.94v6.31h-18.94v-6.31ZM137.41 1088.28h6.31v18.94h-6.31v-18.94Zm6.31 18.94h6.31v6.31h-6.31v-6.31Zm6.31 6.31h6.31v6.23h-6.31v-6.23Zm6.31-6.31h6.31v6.31h-6.31v-6.31Zm6.31-18.94h6.31v18.94h-6.31v-18.94ZM175.4 1088.28h31.56v6.31h-25.25v6.31h18.94v6.31h-18.94v6.31h25.25v6.23H175.4v-31.48ZM213.38 1088.28h6.31v25.25h25.25v6.23h-31.56v-31.48Z" style="fill:#ed0677"/><path d="M19.23 1092.49h31.56v6.31H38.16v25.17h-6.31v-25.17H19.22v-6.31ZM57.22 1092.49h25.25v6.31H63.53v6.31h18.94v6.31H63.53v12.54h-6.31v-31.48Zm25.25 6.31h6.31v6.31h-6.31v-6.31Zm0 12.63h6.31v12.54h-6.31v-12.54ZM95.21 1098.8h6.31v6.31h18.94v-6.31h6.31v25.17h-6.31v-12.54h-18.94v12.54h-6.31v-25.17Zm6.31-6.31h18.94v6.31h-18.94v-6.31ZM133.19 1092.49h6.31v18.94h-6.31v-18.94Zm6.31 18.94h6.31v6.31h-6.31v-6.31Zm6.31 6.31h6.31v6.23h-6.31v-6.23Zm6.31-6.31h6.31v6.31h-6.31v-6.31Zm6.31-18.94h6.31v18.94h-6.31v-18.94ZM171.18 1092.49h31.56v6.31h-25.25v6.31h18.94v6.31h-18.94v6.31h25.25v6.23h-31.56v-31.48ZM209.17 1092.49h6.31v25.25h25.25v6.23h-31.56v-31.48ZM19.23 1152.4h6.31v25.25h-6.31v-25.25Zm6.31 25.25h18.94v6.23H25.54v-6.23Zm18.94-25.25h6.31v25.25h-6.31v-25.25ZM57.22 1152.4h6.31v6.31h6.31v6.31h-6.31v18.85h-6.31v-31.48Zm12.63 12.63h6.31v6.31h-6.31v-6.31Zm12.63-12.63h6.31v31.48h-6.31v-6.23h-6.31v-6.31h6.31v-18.94ZM95.21 1152.4h31.56v6.31h-12.63v18.94h12.63v6.23H95.21v-6.23h12.63v-18.94H95.21v-6.31ZM133.19 1158.71h6.31v18.94h-6.31v-18.94Zm6.31-6.31h18.94v6.31H139.5v-6.31Zm0 25.25h12.63v6.23H139.5v-6.23Zm12.63-6.31h6.31v6.31h-6.31v-6.31Zm6.31-12.63h6.31v12.63h-6.31v-12.63Zm0 18.94h6.31v6.23h-6.31v-6.23ZM171.18 1152.4h6.31v25.25h-6.31v-25.25Zm6.31 25.25h18.94v6.23h-18.94v-6.23Zm18.94-25.25h6.31v25.25h-6.31v-25.25ZM209.17 1152.4h31.56v6.31h-25.25v6.31h18.94v6.31h-18.94v6.31h25.25v6.23h-31.56v-31.48Z" style="fill:#fff"/><path d="M15.02 1156.61h6.31v25.25h-6.31v-25.25Zm6.31 25.25h18.94v6.23H21.33v-6.23Zm18.94-25.25h6.31v25.25h-6.31v-25.25ZM53.01 1156.61h6.31v6.31h6.31v6.31h-6.31v18.85h-6.31v-31.48Zm12.63 12.63h6.31v6.31h-6.31v-6.31Zm12.63-12.63h6.31v31.48h-6.31v-6.23h-6.31v-6.31h6.31v-18.94ZM90.99 1156.61h31.56v6.31h-12.63v18.94h12.63v6.23H90.99v-6.23h12.63v-18.94H90.99v-6.31ZM128.98 1162.93h6.31v18.94h-6.31v-18.94Zm6.31-6.31h18.94v6.31h-18.94v-6.31Zm0 25.25h12.63v6.23h-12.63v-6.23Zm12.63-6.31h6.31v6.31h-6.31v-6.31Zm6.31-12.63h6.31v12.63h-6.31v-12.63Zm0 18.94h6.31v6.23h-6.31v-6.23ZM166.97 1156.61h6.31v25.25h-6.31v-25.25Zm6.31 25.25h18.94v6.23h-18.94v-6.23Zm18.94-25.25h6.31v25.25h-6.31v-25.25ZM204.95 1156.61h31.56v6.31h-25.25v6.31h18.94v6.31h-18.94v6.31h25.25v6.23h-31.56v-31.48Z" style="fill:#0067b4"/><path d="M23.45 1148.19h6.31v25.25h-6.31v-25.25Zm6.31 25.25H48.7v6.23H29.76v-6.23Zm18.94-25.25h6.31v25.25H48.7v-25.25ZM61.43 1148.19h6.31v6.31h6.31v6.31h-6.31v18.85h-6.31v-31.48Zm12.63 12.63h6.31v6.31h-6.31v-6.31Zm12.63-12.63H93v31.48h-6.31v-6.23h-6.31v-6.31h6.31v-18.94ZM99.42 1148.19h31.56v6.31h-12.63v18.94h12.63v6.23H99.42v-6.23h12.63v-18.94H99.42v-6.31ZM137.41 1154.5h6.31v18.94h-6.31v-18.94Zm6.31-6.31h18.94v6.31h-18.94v-6.31Zm0 25.25h12.63v6.23h-12.63v-6.23Zm12.63-6.31h6.31v6.31h-6.31v-6.31Zm6.31-12.63h6.31v12.63h-6.31v-12.63Zm0 18.94h6.31v6.23h-6.31v-6.23ZM175.4 1148.19h6.31v25.25h-6.31v-25.25Zm6.31 25.25h18.94v6.23h-18.94v-6.23Zm18.94-25.25h6.31v25.25h-6.31v-25.25ZM213.38 1148.19h31.56v6.31h-25.25v6.31h18.94v6.31h-18.94v6.31h25.25v6.23h-31.56v-31.48Z" style="fill:#ed0677"/><path d="M19.23 1152.4h6.31v25.25h-6.31v-25.25Zm6.31 25.25h18.94v6.23H25.54v-6.23Zm18.94-25.25h6.31v25.25h-6.31v-25.25ZM57.22 1152.4h6.31v6.31h6.31v6.31h-6.31v18.85h-6.31v-31.48Zm12.63 12.63h6.31v6.31h-6.31v-6.31Zm12.63-12.63h6.31v31.48h-6.31v-6.23h-6.31v-6.31h6.31v-18.94ZM95.21 1152.4h31.56v6.31h-12.63v18.94h12.63v6.23H95.21v-6.23h12.63v-18.94H95.21v-6.31ZM133.19 1158.71h6.31v18.94h-6.31v-18.94Zm6.31-6.31h18.94v6.31H139.5v-6.31Zm0 25.25h12.63v6.23H139.5v-6.23Zm12.63-6.31h6.31v6.31h-6.31v-6.31Zm6.31-12.63h6.31v12.63h-6.31v-12.63Zm0 18.94h6.31v6.23h-6.31v-6.23ZM171.18 1152.4h6.31v25.25h-6.31v-25.25Zm6.31 25.25h18.94v6.23h-18.94v-6.23Zm18.94-25.25h6.31v25.25h-6.31v-25.25ZM209.17 1152.4h31.56v6.31h-25.25v6.31h18.94v6.31h-18.94v6.31h25.25v6.23h-31.56v-31.48Z" style="fill:#fff"/></svg>