<svg xmlns="http://www.w3.org/2000/svg" viewBox="0 0 331.2 46.1"><defs><linearGradient id="a" x1=".9" x2="45.5" y1="45" y2=".8" gradientUnits="userSpaceOnUse"><stop offset="0" stop-color="#281eff"/><stop offset="1" stop-color="#f01e82"/></linearGradient></defs><path d="M65.3 6.3H72V13h6.7v6.7H72v20h-6.7V6.4Zm13.4 13.4h6.7v6.7h-6.7v-6.7ZM92.2 6.3h6.7v33.5H92V33h-6.7v-6.7h6.8v-20Zm12.3 0h30.6V13h-23.9v6.7h17.2v6.7h-17.2v6.7h23.9v6.7h-30.6V6.3Zm36.3 0h33.5V13h-13.4v26.8h-6.7V13h-13.4V6.3Zm39.2 0h6.7v20.1h6.7v6.7h-6.7v6.7H180V6.3Zm13.4 13.4h6.7v6.7h-6.7v-6.7Zm13.4-13.4h6.7v33.5h-6.7V33h-6.7v-6.7h6.7v-20Zm12.4 6.7h6.7v20.1h-6.7v-20Zm6.7-6.7H246V13h-20V6.3Zm0 26.8H246v6.7h-20V33Zm20.1-20h6.7v20H246v-20Zm12.4-6.8h26.9V13H265v6.7h20.1v6.7h-20v13.4h-6.8V6.3Zm26.9 6.7h6.7v6.7h-6.8V13Zm0 13.4h6.7v13.4h-6.8V26.4Zm12.3-20.1h26.9V13h-20.2v20.1h20.2v6.7h-26.9V6.3Zm26.9 6.7h6.7v20.1h-6.7v-20Z"/><path fill="url(#a)" d="M0 0h46.1v46.1H0z"/><path fill="#fff" d="M6.5 6.1h3v9.2h3v3h-3v3h-3V6.2Zm6 6.2h3.1v3h-3v-3ZM18.8 6h3v15.3h-3v-3h-3v-3h3V6ZM25 9.2h3v9.2h-3V9.2Zm3-3h9.2v3H28v-3Zm0 12.2h9.2v3H28v-3Zm9.2-9.2h3v9.2h-3V9.2ZM6.5 24.6h12.2v3H9.5v3.1h9.2v3H9.5V40h-3V24.6Zm12.2 3h3v3.1h-3v-3Zm0 6.2h3v6h-3v-6Zm6.3-9.2h12.2v3H28v9.2h9.2v3H24.9V24.6Zm12.2 3h3v9.2h-3v-9.1Z"/></svg>