<svg xmlns="http://www.w3.org/2000/svg" viewBox="0 0 331.2 46.1"><path d="M65.3 6.3H72V13h6.7v6.7H72v20h-6.7V6.3Zm13.4 13.4h6.7v6.7h-6.7v-6.7ZM92.2 6.3h6.7v33.5H92V33h-6.7v-6.7h6.8v-20h.1Zm12.3 0h30.6V13h-23.9v6.7h17.2v6.7h-17.2v6.7h23.9v6.7h-30.6V6.3Zm36.3 0h33.5V13h-13.4v26.8h-6.7V13h-13.4V6.3Zm39.2 0h6.7v20.1h6.7v6.7h-6.7v6.7H180V6.3Zm13.4 13.4h6.7v6.7h-6.7v-6.7Zm13.4-13.4h6.7v33.5h-6.7V33h-6.7v-6.7h6.7v-20Zm12.4 6.7h6.7v20.1h-6.7V13Zm6.7-6.7H246V13h-20V6.3h-.1Zm0 26.8H246v6.7h-20V33l-.1.1Zm20.1-20h6.7v20H246v-20Zm12.4-6.8h26.9V13H265v6.7h20.1v6.7h-20v13.4h-6.8V6.3h.1Zm26.9 6.7h6.7v6.7h-6.8V13h.1Zm0 13.4h6.7v13.4h-6.8V26.4h.1Zm12.3-20.1h26.9V13h-20.2v20.1h20.2v6.7h-26.9V6.3Zm26.9 6.7h6.7v20.1h-6.7V13Z" style="fill:#f8f8f6"/><path d="M28 9.2h9.2v9.2H28zM37.2 27.6H28v9.2h9.2v-9.2zM18.7 27.6H9.5v3.1h9.2v-3.1z" style="fill:#fff"/><path d="M0 0v46.1h46.1V0H0Zm15.6 12.3v3h-3v-3h3ZM6.5 6.2v-.1h3v9.2h3v3h-3v3h-3V6.2Zm15.2 33.6h-3v-6h3v6Zm0-9.1h-3v3H9.5V40h-3V24.6h12.2v3h3v3.1Zm.1-9.4h-3v-3h-3v-3h3V6h3v15.3Zm18.4 15.5h-3v3H24.9V24.6h12.3v3h3v9.2Zm0-18.4h-3v3H28v-3h-3V9.2h3v-3h9.2v3h3v9.2Z" style="fill:#fff"/></svg>