<svg xmlns="http://www.w3.org/2000/svg" viewBox="0 0 76 28" fill="#ffffffcc"><path d="M21.9 20.5v6.1h6v-1.2h-4.8v-1.2h3.6V23h-3.6v-1.2h4.8v-1.3h-6zM7.3 21.8h1.2v3.6H7.3zm4.9 0h1.2v3.6h-1.2zm-3.7-1.3h3.6v1.2H8.5zm0 4.9h3.6v1.2H8.5zm7.3-3.6h3.6v-1.3h-4.8v6.1h1.2v-2.4h3.6V23h-3.6v-1.2z"/><path d="M19.4 21.8h1.2V23h-1.2zM4.9 23H1.2v-2.5H0v6.1h1.2v-2.4h3.7v2.4h1.2v-6.1H4.9V23zM44.6 6.8h1.2V8h-1.2zm-14.4 0h1.2V8h-1.2zM31.4 8h1.2v2.4h-1.2zm6 10.8h1.2V20h-1.2zm-4.8-1.2v-4.8h-1.2V20h1.2v-1.2h1.2v-1.2h-1.2zm0 3.6h1.2v1.2h-1.2zm10.8-2.4h1.2V20h-1.2zm-2.4 0h1.2V20H41zM39.8 20H41v1.2h-1.2zm-1.2 1.2h1.2v1.2h-1.2z"/><path d="M33.8 18.8H35v2.4h-1.2zm8.4-2.4h1.2v2.4h-1.2zm1.2-2.4h1.2v2.4h-1.2zm1.2-2.4h1.2V14h-1.2zm1.2 8.4h-1.2v1.2h1.2v1.2H47v-4.8h-1.2V20z"/><path d="M45.8 10.4V9.2h-3.6V5.6H41v3.6h-4.8v1.2H41v6h1.2v-6h3.6zM29 11.6h2.4v1.2H29zm14.4-6h1.2v1.2h-1.2z"/><path d="M35 16.4h-1.2v1.2H35v1.2h2.4v-1.2h-1.2v-3h2.4v4.2h1.2v-5.4h-3.6v-3H35v6zM0 2.8h2.4v2.4h1.2V2.8h2.5v3.6H2.4V5.2H0v1.2h1.2v1.2h1.2v1.2h1.2V7.6h2.5v2.5h1.2V2.8h2.4v7.3h1.2V2.8H17V4h-2.4v1.2h3.6V2.8h4.9v2.4h1.2V2.8h2.4v3.6h-3.6V5.2h-2.5v1.2h1.3v1.2h1.2v1.2h1.2V7.6h2.4v2.5h1.2V2.8h1.2V1.6H0v1.2z"/><path d="M13.4 5.2h1.2v1.2h-1.2zm1.2 3.6v1.3h1.2V7.6h2.4V6.4h-3.6v2.4z"/><path d="M15.8 10.1H17v1.2h-1.2zm1.2 1.2h1.2v1.2H17zm1.2-3.7h1.2v1.2h-1.2zm6.1 1.2h1.2V10h-1.2zm-20.7 0h1.2V10H3.6zm49.7-4.9h1.2v1.2h-1.2zm-2.4 2.4V5.1h-1.2v3.6h1.2V6.3zm6 0v2.4h1.2V5.1h-1.2v1.2zm16.7-.4v-.8h-1.2v2.4h1.2V5.9zM60.5 3.6v-2h-1.2v5.9h1.2V3.6zm14.3-2v7.1H76V1.6h-1.2zM50.9 8.7v1.2h6V8.7h-6zm15.6-2.4V5.1h-2.4v1.2h2.4zm0 3.6h1.1V8.7h4.8V7.5h-4.8V6.3h-1.1v3.6h-2.4v1.2h2.4V9.9z"/><path d="M64.1 6.3h-1.2v1.2h-2.4v1.2h2.4v1.2h1.2V6.3zm9.5 3.6H70v1.2h3.6V9.9zM49.4 26.6h.9v-5.5h2.8v5.5h.9v-6.4h-4.6v6.4zm5.5-5.5h.9v4.6h-.9zm.9-.9h2.8v.9h-2.8zm0 5.5h2.8v.9h-2.8zm2.8-4.6h.9v4.6h-.9zm7.3 0h.9v4.6h-.9zm.9-.9h2.8v.9h-2.8zm5.5-1.8h2.8v.9h-2.8zm-5.5 7.3h2.8v.9h-2.8zm2.8-4.6h.9v4.6h-.9zm-8.3-.9h-.9v6.4h.9v-2.7h.9v-1h-.9v-2.7zm11 0h-.9v6.4h.9v-.9h1v-1.8h-1v-3.7zm2.8.9h-.9v1.8h.9v3.7h.9v-6.4h-.9v.9zm-12.9.9h.9v.9h-.9z"/><path d="M73.3 22.9h.9v.9h-.9zm-11.1 1h.9v.9h-.9zm.9.9h.9v.9h-.9zm1 .9h.9v.9h-.9zm-1-4.6h.9v.9h-.9zm1-.9h.9v.9h-.9zm7.3-2.8h.9v.9h-.9zm3.7 0h.9v.9h-.9z"/><path fill="none" d="M0 0h76v28H0z"/></svg>