<svg xmlns="http://www.w3.org/2000/svg" fill="none" viewBox="0 0 122 32"><path fill="#fff" fill-rule="evenodd" d="M37 23c-.5-.2-.8-.6-.8-1a1 1 0 0 1 1.5-1 6 6 0 0 0 2.5.5c1.8 0 2.6-.8 2.6-2.5v-.4c-.7.9-1.6 1.5-3 1.5-2.1 0-4-1.6-4-4.3 0-2.8 2-4.3 4-4.3 1.5 0 2.3.6 3 1.3 0-.7.6-1.3 1.3-1.3.7 0 1.3.6 1.3 1.3v6c0 1.6-.4 2.8-1.2 3.6-.8.8-2.1 1.2-4 1.2a8.8 8.8 0 0 1-3.3-.7zm5.8-7.2c0-1.3-1-2.2-2.2-2.2s-2.2.9-2.2 2.1c0 1.3 1 2.2 2.2 2.2 1.3 0 2.2-.9 2.2-2.1zm4.1-3c0-.7.6-1.3 1.3-1.3.7 0 1.3.6 1.3 1.3v.4c.4-.8 1-1.7 1.8-1.7s1.2.6 1.2 1.3c0 .7-.4 1.1-1 1.2-1.3.3-2 1.3-2 3.2v2.4c0 .7-.6 1.3-1.3 1.3a1.3 1.3 0 0 1-1.3-1.3v-6.8zm5.3 5.4c0-2 1.6-3 3.7-3 1 0 1.6.2 2.3.4v-.2c0-1-.7-1.6-2-1.6a6 6 0 0 0-1.8.2 1.1 1.1 0 0 1-.4 0 1 1 0 0 1-1-1c0-.4.2-.8.7-1a8 8 0 0 1 2.9-.5c1.4 0 2.5.4 3.1 1 .7.7 1 1.8 1 3v4.2c0 .7-.6 1.2-1.3 1.2-.7 0-1.2-.5-1.2-1a4 4 0 0 1-2.8 1c-1.7 0-3.2-1-3.2-2.7zm6-.6V17a4 4 0 0 0-1.6-.3c-1.2 0-1.8.4-1.8 1.2 0 .8.5 1.2 1.4 1.2 1.2 0 2-.7 2-1.6zm3.9-4.8c0-.7.6-1.3 1.3-1.3.7 0 1.3.6 1.3 1.3v.1c.6-.7 1.4-1.4 2.7-1.4 1.2 0 2.1.5 2.6 1.4.8-1 1.8-1.4 3-1.4 2 0 3.1 1.1 3.1 3.3v4.8c0 .7-.5 1.3-1.3 1.3a1.3 1.3 0 0 1-1.3-1.3v-4c0-1.1-.5-1.8-1.5-1.8s-1.6.7-1.6 1.9v4c0 .6-.6 1.2-1.3 1.2a1.3 1.3 0 0 1-1.3-1.3v-4c0-1.1-.5-1.8-1.5-1.8s-1.6.7-1.6 1.9v4c0 .6-.6 1.2-1.3 1.2a1.3 1.3 0 0 1-1.3-1.3v-6.8zm15.5 0c0-.7.5-1.3 1.3-1.3.7 0 1.3.6 1.3 1.3v.1c.6-.7 1.4-1.4 2.7-1.4 1.2 0 2 .5 2.6 1.4.8-1 1.7-1.4 3-1.4 2 0 3.1 1.1 3.1 3.3v4.8c0 .7-.6 1.3-1.3 1.3a1.3 1.3 0 0 1-1.3-1.3v-4c0-1.1-.6-1.8-1.5-1.8-1 0-1.6.7-1.6 1.9v4c0 .6-.6 1.2-1.3 1.2a1.3 1.3 0 0 1-1.3-1.3v-4c0-1.1-.6-1.8-1.6-1.8s-1.5.7-1.5 1.9v4c0 .6-.6 1.2-1.3 1.2a1.3 1.3 0 0 1-1.3-1.3v-6.8zm14.9 5.4c0-2 1.5-3 3.7-3a6.6 6.6 0 0 1 2.2.4v-.2c0-1-.7-1.6-2-1.6a6 6 0 0 0-1.8.2 1.1 1.1 0 0 1-.3 0 1 1 0 0 1-1.1-1c0-.4.3-.8.7-1a8 8 0 0 1 3-.5c1.3 0 2.4.4 3 1 .7.7 1 1.8 1 3v4.2a1.3 1.3 0 0 1-1.2 1.2c-.8 0-1.3-.5-1.3-1-.6.6-1.5 1-2.8 1-1.7 0-3.1-1-3.1-2.7zm6-.6V17a4 4 0 0 0-1.7-.3c-1.1 0-1.8.4-1.8 1.2 0 .8.6 1.2 1.4 1.2 1.2 0 2-.7 2-1.6zm3.8-4.8c0-.7.6-1.3 1.3-1.3.7 0 1.3.6 1.3 1.3v.4c.4-.8 1-1.7 1.8-1.7s1.3.6 1.3 1.3c0 .7-.5 1.1-1 1.2-1.3.3-2 1.3-2 3.2v2.4c0 .7-.7 1.3-1.4 1.3a1.3 1.3 0 0 1-1.3-1.3v-6.8zm6.5-3.3c0-.7.5-1.3 1.3-1.3.7 0 1.3.6 1.3 1.3v10.1c0 .7-.6 1.3-1.3 1.3a1.3 1.3 0 0 1-1.3-1.3v-10zm4.6 13.9c-.3-.2-.8-.5-.8-1.1a1 1 0 0 1 1-1h1c.5 0 .7 0 1-.5v-.2l-3.1-7.2a1.9 1.9 0 0 1-.1-.6c0-.8.5-1.3 1.3-1.3.6 0 1 .4 1.2 1l2 5.4 2-5.4c.1-.5.5-1 1.2-1 .6 0 1.2.5 1.2 1.2l-.1.6L118 21c-.8 1.9-1.6 2.6-3.1 2.6-.6 0-1 0-1.5-.2z" clip-rule="evenodd"/><path fill="#15C39A" fill-rule="evenodd" d="M28.5 16.2a14.2 14.2 0 1 1-28.5 0 14.2 14.2 0 0 1 28.5 0z" clip-rule="evenodd"/><path fill="#fff" fill-rule="evenodd" d="M16.1 19.3c.1.4.5.8 1 .8h1.5l.9-.2c-1.4 2-3.8 3-6.4 2.6a6 6 0 0 1-4.8-3.8 6.5 6.5 0 0 1 6-9c2.2 0 4.2 1.4 5.4 3 .3.4.9.6 1.3.3a1 1 0 0 0 .3-1.3A8.4 8.4 0 0 0 13.7 8a8.3 8.3 0 0 0 .6 16.6 8.3 8.3 0 0 0 6.3-2.9l-.2 1v1c0 .5.3.9.8 1a1 1 0 0 0 1.1-1v-5.5h-5.2a1 1 0 0 0-1 1.2z" clip-rule="evenodd"/></svg>