<svg xmlns="http://www.w3.org/2000/svg" xmlns:xlink="http://www.w3.org/1999/xlink" fill="none" viewBox="0 0 147 50"><defs><path id="a" fill="#fff" d="M25.4 22.7V28h14a14.7 14.7 0 0 1-14.5 11.7c-8 0-14.7-6.6-14.7-14.6a14.7 14.7 0 0 1 25-10.5l3.7-4a20 20 0 1 0 5.8 12H25.4Z"/></defs><path fill="#fff" fill-rule="evenodd" d="M99.3 26.7v-2.9H111V25c0 6.7-5.1 12.1-11.7 12.5H98A12.4 12.4 0 0 1 86.3 25a12.3 12.3 0 0 1 20.8-9.1l-1.9 2.2a9.7 9.7 0 0 0-6.5-2.7c-5 0-9.5 4-9.5 9.6a9.5 9.5 0 0 0 19 1.7h-9ZM127.9 37h-13.7V13H128v3h-11v6.8h10.9v2.8h-11v8.6h11v2.9Zm-48.7-6.4-15-17.5h-.8V37h2.8V19.8l15 17.3h.8V13h-2.8v17.6ZM56.1 37h2.8V13H56v24Zm82.4-11a11 11 0 0 0 4.2-.7c2.4-1.1 3.6-3 3.6-5.8 0-1.5-.4-2.9-1.3-4a6 6 0 0 0-3.5-2.1 28 28 0 0 0-5.3-.4h-4.8v24h2.8V26.2h1l8.2 10.8.1.1h3.5l-8.5-11Zm-4.4-2.7V16h3.9c1.5 0 2.7.1 3.3.4.7.2 1.2.6 1.6 1.2.4.6.6 1.3.6 2 0 .8-.2 1.5-.6 2-.7 1.3-2.4 1.9-4.9 1.9h-3.9Z" clip-rule="evenodd"/><ellipse cx="24.9" cy="25" fill="#20B3C8" rx="24.9" ry="25"/><use xlink:href="#a"/><ellipse cx="24.9" cy="25" fill="#20B3C8" rx="24.9" ry="25"/><use xlink:href="#a"/></svg>